<mxfile host="www.draw.io" modified="2019-12-04T01:53:35.784Z" agent="Mozilla/5.0 (Windows NT 6.1; Win64; x64) AppleWebKit/537.36 (KHTML, like Gecko) Chrome/78.0.3904.97 Safari/537.36" etag="JismU7L4boOaUQZZpucr" version="12.2.6" type="github" pages="1">
  <diagram name="Page-1" id="74e2e168-ea6b-b213-b513-2b3c1d86103e">
    <mxGraphModel dx="4722" dy="2462" grid="1" gridSize="10" guides="1" tooltips="1" connect="1" arrows="1" fold="1" page="1" pageScale="1" pageWidth="1100" pageHeight="850" background="#ffffff" math="0" shadow="0">
      <root>
        <mxCell id="0"/>
        <mxCell id="1" parent="0"/>
        <mxCell id="77e6c97f196da883-1" value="废弃！！！" style="swimlane;html=1;childLayout=stackLayout;startSize=20;rounded=0;shadow=0;labelBackgroundColor=none;strokeColor=#000000;strokeWidth=1;fillColor=#ffffff;fontFamily=Verdana;fontSize=8;fontColor=#000000;align=center;" parent="1" vertex="1">
          <mxGeometry x="1220" y="270" width="1290" height="2985" as="geometry"/>
        </mxCell>
        <mxCell id="77e6c97f196da883-2" value="erp进销存" style="swimlane;html=1;startSize=20;" parent="77e6c97f196da883-1" vertex="1">
          <mxGeometry y="20" width="180" height="2965" as="geometry"/>
        </mxCell>
        <mxCell id="77e6c97f196da883-8" value="导入平台" style="rounded=1;whiteSpace=wrap;html=1;shadow=0;labelBackgroundColor=none;strokeColor=#b85450;strokeWidth=3;fillColor=#f8cecc;fontFamily=Verdana;fontSize=8;align=center;" parent="77e6c97f196da883-2" vertex="1">
          <mxGeometry x="52.5" y="211" width="95" height="45" as="geometry"/>
        </mxCell>
        <mxCell id="77e6c97f196da883-9" value="更新设备信息" style="rounded=1;whiteSpace=wrap;html=1;shadow=0;labelBackgroundColor=none;strokeColor=#000000;strokeWidth=3;fillColor=#ffffff;fontFamily=Verdana;fontSize=8;fontColor=#000000;align=center;" parent="77e6c97f196da883-2" vertex="1">
          <mxGeometry x="51" y="516.5" width="97" height="40" as="geometry"/>
        </mxCell>
        <mxCell id="zzndENpx0boXt8F3LTmc-22" value="调拨设备" style="rounded=1;whiteSpace=wrap;html=1;shadow=0;labelBackgroundColor=none;strokeColor=#b85450;strokeWidth=4;fillColor=#f8cecc;fontFamily=Verdana;fontSize=8;align=center;" parent="77e6c97f196da883-2" vertex="1">
          <mxGeometry x="52.5" y="815" width="79" height="41" as="geometry"/>
        </mxCell>
        <mxCell id="zzndENpx0boXt8F3LTmc-29" value="判断是否需要重置“首次激活时间”&lt;br&gt;&lt;br&gt;判断是否需要重置“激活状态”&lt;br&gt;&lt;br&gt;跨结算客户调拨标示（此参数支持后门）&lt;br&gt;+发货任务号&lt;br&gt;&lt;br&gt;目标渠道" style="rounded=0;whiteSpace=wrap;html=1;" parent="77e6c97f196da883-2" vertex="1">
          <mxGeometry x="31" y="877" width="120" height="160" as="geometry"/>
        </mxCell>
        <mxCell id="D1fkWWdUB6Wvw9z3cZuo-23" value="导入平台&lt;br&gt;通知" style="rounded=1;whiteSpace=wrap;html=1;shadow=0;labelBackgroundColor=none;strokeColor=#b85450;strokeWidth=3;fillColor=#f8cecc;fontFamily=Verdana;fontSize=8;align=center;" parent="77e6c97f196da883-2" vertex="1">
          <mxGeometry x="51" y="330.5" width="95" height="45" as="geometry"/>
        </mxCell>
        <mxCell id="zzndENpx0boXt8F3LTmc-28" value="" style="shape=link;html=1;" parent="77e6c97f196da883-2" edge="1">
          <mxGeometry width="50" height="50" relative="1" as="geometry">
            <mxPoint x="19.5" y="736.5" as="sourcePoint"/>
            <mxPoint x="1239.5" y="736.5" as="targetPoint"/>
          </mxGeometry>
        </mxCell>
        <mxCell id="D1fkWWdUB6Wvw9z3cZuo-28" value="更新设备信息&lt;br&gt;通知" style="rounded=1;whiteSpace=wrap;html=1;shadow=0;labelBackgroundColor=none;strokeColor=#000000;strokeWidth=3;fillColor=#ffffff;fontFamily=Verdana;fontSize=8;fontColor=#000000;align=center;" parent="77e6c97f196da883-2" vertex="1">
          <mxGeometry x="52" y="656.5" width="95" height="45" as="geometry"/>
        </mxCell>
        <mxCell id="D1fkWWdUB6Wvw9z3cZuo-166" value="调拨设备&lt;br&gt;回调" style="rounded=1;whiteSpace=wrap;html=1;shadow=0;labelBackgroundColor=none;strokeColor=#b85450;strokeWidth=4;fillColor=#f8cecc;fontFamily=Verdana;fontSize=8;align=center;" parent="77e6c97f196da883-2" vertex="1">
          <mxGeometry x="52.5" y="1628.5" width="79" height="41" as="geometry"/>
        </mxCell>
        <mxCell id="D1fkWWdUB6Wvw9z3cZuo-308" value="平台调拨车辆&lt;br&gt;通知" style="rounded=1;whiteSpace=wrap;html=1;shadow=0;labelBackgroundColor=none;strokeColor=#6c8ebf;strokeWidth=4;fillColor=#dae8fc;fontFamily=Verdana;fontSize=8;align=center;" parent="77e6c97f196da883-2" vertex="1">
          <mxGeometry x="51.5" y="1481.5" width="79" height="41" as="geometry"/>
        </mxCell>
        <mxCell id="D1fkWWdUB6Wvw9z3cZuo-419" value="库存同步&lt;br&gt;通知" style="rounded=1;whiteSpace=wrap;html=1;shadow=0;labelBackgroundColor=none;strokeColor=#6c8ebf;strokeWidth=3;fillColor=#dae8fc;fontFamily=Verdana;fontSize=8;align=center;" parent="77e6c97f196da883-2" vertex="1">
          <mxGeometry x="31" y="2220" width="98" height="40" as="geometry"/>
        </mxCell>
        <mxCell id="D1fkWWdUB6Wvw9z3cZuo-430" value="" style="shape=link;html=1;" parent="77e6c97f196da883-2" edge="1">
          <mxGeometry width="50" height="50" relative="1" as="geometry">
            <mxPoint x="31" y="2370" as="sourcePoint"/>
            <mxPoint x="1250.4999999999995" y="2370" as="targetPoint"/>
          </mxGeometry>
        </mxCell>
        <mxCell id="D1fkWWdUB6Wvw9z3cZuo-433" value="同步&lt;br&gt;平台库存状态" style="rounded=1;whiteSpace=wrap;html=1;shadow=0;labelBackgroundColor=none;strokeColor=#b85450;strokeWidth=4;fillColor=#f8cecc;fontFamily=Verdana;fontSize=8;align=center;" parent="77e6c97f196da883-2" vertex="1">
          <mxGeometry x="53" y="2421.6666666666665" width="79" height="41" as="geometry"/>
        </mxCell>
        <mxCell id="D1fkWWdUB6Wvw9z3cZuo-442" value="同步&lt;br&gt;平台库存状态&lt;br&gt;通知" style="rounded=1;whiteSpace=wrap;html=1;shadow=0;labelBackgroundColor=none;strokeColor=#b85450;strokeWidth=4;fillColor=#f8cecc;fontFamily=Verdana;fontSize=8;align=center;" parent="77e6c97f196da883-2" vertex="1">
          <mxGeometry x="53" y="2480.1666666666665" width="79" height="41" as="geometry"/>
        </mxCell>
        <mxCell id="zzndENpx0boXt8F3LTmc-25" style="edgeStyle=orthogonalEdgeStyle;rounded=1;orthogonalLoop=1;jettySize=auto;html=1;entryX=0;entryY=0.5;entryDx=0;entryDy=0;" parent="77e6c97f196da883-1" source="zzndENpx0boXt8F3LTmc-22" target="zzndENpx0boXt8F3LTmc-24" edge="1">
          <mxGeometry relative="1" as="geometry"/>
        </mxCell>
        <mxCell id="D1fkWWdUB6Wvw9z3cZuo-122" style="edgeStyle=orthogonalEdgeStyle;rounded=1;orthogonalLoop=1;jettySize=auto;html=1;entryX=1;entryY=0.5;entryDx=0;entryDy=0;" parent="77e6c97f196da883-1" source="zzndENpx0boXt8F3LTmc-24" target="zzndENpx0boXt8F3LTmc-29" edge="1">
          <mxGeometry relative="1" as="geometry">
            <Array as="points">
              <mxPoint x="519.5" y="976.5"/>
            </Array>
          </mxGeometry>
        </mxCell>
        <mxCell id="O4f6FyTcEPhxwh4ODSin-30" style="edgeStyle=orthogonalEdgeStyle;rounded=1;orthogonalLoop=1;jettySize=auto;html=1;strokeColor=#000000;entryX=0;entryY=0.5;entryDx=0;entryDy=0;entryPerimeter=0;" parent="77e6c97f196da883-1" source="zzndENpx0boXt8F3LTmc-29" target="D1fkWWdUB6Wvw9z3cZuo-169" edge="1">
          <mxGeometry relative="1" as="geometry">
            <Array as="points">
              <mxPoint x="91" y="1231"/>
            </Array>
            <mxPoint x="90.02941176470586" y="1217.5588235294117" as="sourcePoint"/>
            <mxPoint x="244.1470588235295" y="1347.0294117647059" as="targetPoint"/>
          </mxGeometry>
        </mxCell>
        <mxCell id="O4f6FyTcEPhxwh4ODSin-33" value="设备or车辆" style="text;html=1;resizable=0;points=[];align=center;verticalAlign=middle;labelBackgroundColor=#ffffff;" parent="O4f6FyTcEPhxwh4ODSin-30" vertex="1" connectable="0">
          <mxGeometry x="0.0288" y="-4" relative="1" as="geometry">
            <mxPoint x="-1" as="offset"/>
          </mxGeometry>
        </mxCell>
        <mxCell id="D1fkWWdUB6Wvw9z3cZuo-162" style="edgeStyle=orthogonalEdgeStyle;rounded=1;orthogonalLoop=1;jettySize=auto;html=1;exitX=0;exitY=0.5;exitDx=0;exitDy=0;" parent="77e6c97f196da883-1" source="D1fkWWdUB6Wvw9z3cZuo-312" target="D1fkWWdUB6Wvw9z3cZuo-166" edge="1">
          <mxGeometry relative="1" as="geometry">
            <mxPoint x="329.16666666666674" y="1669.5" as="targetPoint"/>
            <mxPoint x="705" y="1669" as="sourcePoint"/>
          </mxGeometry>
        </mxCell>
        <mxCell id="D1fkWWdUB6Wvw9z3cZuo-182" style="edgeStyle=orthogonalEdgeStyle;rounded=1;orthogonalLoop=1;jettySize=auto;html=1;entryX=0.5;entryY=0;entryDx=0;entryDy=0;entryPerimeter=0;" parent="77e6c97f196da883-1" source="D1fkWWdUB6Wvw9z3cZuo-177" target="D1fkWWdUB6Wvw9z3cZuo-169" edge="1">
          <mxGeometry relative="1" as="geometry"/>
        </mxCell>
        <mxCell id="D1fkWWdUB6Wvw9z3cZuo-183" value="是" style="text;html=1;resizable=0;points=[];align=center;verticalAlign=middle;labelBackgroundColor=#ffffff;" parent="D1fkWWdUB6Wvw9z3cZuo-182" vertex="1" connectable="0">
          <mxGeometry x="-0.6311" relative="1" as="geometry">
            <mxPoint as="offset"/>
          </mxGeometry>
        </mxCell>
        <mxCell id="D1fkWWdUB6Wvw9z3cZuo-213" style="edgeStyle=orthogonalEdgeStyle;rounded=1;orthogonalLoop=1;jettySize=auto;html=1;entryX=0.5;entryY=0;entryDx=0;entryDy=0;entryPerimeter=0;" parent="77e6c97f196da883-1" source="D1fkWWdUB6Wvw9z3cZuo-212" target="D1fkWWdUB6Wvw9z3cZuo-170" edge="1">
          <mxGeometry relative="1" as="geometry"/>
        </mxCell>
        <mxCell id="zzndENpx0boXt8F3LTmc-4" style="edgeStyle=orthogonalEdgeStyle;rounded=1;orthogonalLoop=1;jettySize=auto;html=1;entryX=0;entryY=0.5;entryDx=0;entryDy=0;entryPerimeter=0;" parent="77e6c97f196da883-1" source="77e6c97f196da883-8" target="D1fkWWdUB6Wvw9z3cZuo-170" edge="1">
          <mxGeometry relative="1" as="geometry">
            <mxPoint x="235.5" y="307.58823529411757" as="targetPoint"/>
          </mxGeometry>
        </mxCell>
        <mxCell id="D1fkWWdUB6Wvw9z3cZuo-216" style="edgeStyle=orthogonalEdgeStyle;rounded=1;orthogonalLoop=1;jettySize=auto;html=1;entryX=0;entryY=0.5;entryDx=0;entryDy=0;" parent="77e6c97f196da883-1" source="D1fkWWdUB6Wvw9z3cZuo-170" target="D1fkWWdUB6Wvw9z3cZuo-215" edge="1">
          <mxGeometry relative="1" as="geometry"/>
        </mxCell>
        <mxCell id="D1fkWWdUB6Wvw9z3cZuo-12" style="edgeStyle=orthogonalEdgeStyle;rounded=0;orthogonalLoop=1;jettySize=auto;html=1;entryX=0;entryY=0.5;entryDx=0;entryDy=0;entryPerimeter=0;" parent="77e6c97f196da883-1" source="77e6c97f196da883-9" target="D1fkWWdUB6Wvw9z3cZuo-172" edge="1">
          <mxGeometry relative="1" as="geometry">
            <mxPoint x="238.5" y="556.3823529411766" as="targetPoint"/>
          </mxGeometry>
        </mxCell>
        <mxCell id="D1fkWWdUB6Wvw9z3cZuo-14" style="edgeStyle=orthogonalEdgeStyle;rounded=0;orthogonalLoop=1;jettySize=auto;html=1;" parent="77e6c97f196da883-1" source="D1fkWWdUB6Wvw9z3cZuo-172" target="zzndENpx0boXt8F3LTmc-6" edge="1">
          <mxGeometry relative="1" as="geometry">
            <mxPoint x="313.5" y="556.3823529411766" as="sourcePoint"/>
          </mxGeometry>
        </mxCell>
        <mxCell id="D1fkWWdUB6Wvw9z3cZuo-225" style="edgeStyle=orthogonalEdgeStyle;rounded=1;orthogonalLoop=1;jettySize=auto;html=1;" parent="77e6c97f196da883-1" source="D1fkWWdUB6Wvw9z3cZuo-119" target="D1fkWWdUB6Wvw9z3cZuo-28" edge="1">
          <mxGeometry relative="1" as="geometry">
            <mxPoint x="329.16666666666674" y="698.6666666666667" as="targetPoint"/>
            <Array as="points">
              <mxPoint x="724" y="699"/>
            </Array>
          </mxGeometry>
        </mxCell>
        <mxCell id="D1fkWWdUB6Wvw9z3cZuo-1" value="消息中心" style="swimlane;html=1;startSize=20;" parent="77e6c97f196da883-1" vertex="1">
          <mxGeometry x="180" y="20" width="210" height="2965" as="geometry"/>
        </mxCell>
        <mxCell id="D1fkWWdUB6Wvw9z3cZuo-169" value="mq" style="strokeWidth=1;html=1;shape=mxgraph.flowchart.direct_data;whiteSpace=wrap;" parent="D1fkWWdUB6Wvw9z3cZuo-1" vertex="1">
          <mxGeometry x="60" y="1191.5" width="105" height="40" as="geometry"/>
        </mxCell>
        <mxCell id="D1fkWWdUB6Wvw9z3cZuo-170" value="mq" style="strokeWidth=1;html=1;shape=mxgraph.flowchart.direct_data;whiteSpace=wrap;" parent="D1fkWWdUB6Wvw9z3cZuo-1" vertex="1">
          <mxGeometry x="53" y="213.5" width="105" height="40" as="geometry"/>
        </mxCell>
        <mxCell id="D1fkWWdUB6Wvw9z3cZuo-172" value="mq" style="strokeWidth=1;html=1;shape=mxgraph.flowchart.direct_data;whiteSpace=wrap;" parent="D1fkWWdUB6Wvw9z3cZuo-1" vertex="1">
          <mxGeometry x="47.5" y="516.5" width="105" height="40" as="geometry"/>
        </mxCell>
        <mxCell id="D1fkWWdUB6Wvw9z3cZuo-406" value="mq" style="strokeWidth=1;html=1;shape=mxgraph.flowchart.direct_data;whiteSpace=wrap;" parent="D1fkWWdUB6Wvw9z3cZuo-1" vertex="1">
          <mxGeometry x="47.5" y="2000.0588235294117" width="105" height="40" as="geometry"/>
        </mxCell>
        <mxCell id="D1fkWWdUB6Wvw9z3cZuo-437" value="mq" style="strokeWidth=1;html=1;shape=mxgraph.flowchart.direct_data;whiteSpace=wrap;" parent="D1fkWWdUB6Wvw9z3cZuo-1" vertex="1">
          <mxGeometry x="47.5" y="2421.5588235294117" width="105" height="40" as="geometry"/>
        </mxCell>
        <mxCell id="D1fkWWdUB6Wvw9z3cZuo-315" style="edgeStyle=orthogonalEdgeStyle;rounded=1;orthogonalLoop=1;jettySize=auto;html=1;entryX=1;entryY=0.5;entryDx=0;entryDy=0;endArrow=classic;endFill=1;" parent="77e6c97f196da883-1" source="D1fkWWdUB6Wvw9z3cZuo-311" target="D1fkWWdUB6Wvw9z3cZuo-308" edge="1">
          <mxGeometry relative="1" as="geometry"/>
        </mxCell>
        <mxCell id="D1fkWWdUB6Wvw9z3cZuo-399" style="edgeStyle=orthogonalEdgeStyle;rounded=1;orthogonalLoop=1;jettySize=auto;html=1;entryX=1;entryY=0.5;entryDx=0;entryDy=0;endArrow=classic;endFill=1;" parent="77e6c97f196da883-1" source="D1fkWWdUB6Wvw9z3cZuo-395" target="D1fkWWdUB6Wvw9z3cZuo-23" edge="1">
          <mxGeometry relative="1" as="geometry">
            <Array as="points">
              <mxPoint x="1033" y="373"/>
            </Array>
          </mxGeometry>
        </mxCell>
        <mxCell id="D1fkWWdUB6Wvw9z3cZuo-408" style="edgeStyle=orthogonalEdgeStyle;rounded=1;orthogonalLoop=1;jettySize=auto;html=1;endArrow=classic;endFill=1;" parent="77e6c97f196da883-1" source="D1fkWWdUB6Wvw9z3cZuo-402" target="D1fkWWdUB6Wvw9z3cZuo-406" edge="1">
          <mxGeometry relative="1" as="geometry"/>
        </mxCell>
        <mxCell id="D1fkWWdUB6Wvw9z3cZuo-411" style="edgeStyle=orthogonalEdgeStyle;rounded=1;orthogonalLoop=1;jettySize=auto;html=1;endArrow=classic;endFill=1;" parent="77e6c97f196da883-1" source="D1fkWWdUB6Wvw9z3cZuo-406" target="D1fkWWdUB6Wvw9z3cZuo-413" edge="1">
          <mxGeometry relative="1" as="geometry">
            <mxPoint x="440" y="2040.0588235294117" as="targetPoint"/>
          </mxGeometry>
        </mxCell>
        <mxCell id="D1fkWWdUB6Wvw9z3cZuo-428" style="edgeStyle=orthogonalEdgeStyle;rounded=1;orthogonalLoop=1;jettySize=auto;html=1;endArrow=classic;endFill=1;" parent="77e6c97f196da883-1" source="D1fkWWdUB6Wvw9z3cZuo-169" target="D1fkWWdUB6Wvw9z3cZuo-426" edge="1">
          <mxGeometry relative="1" as="geometry"/>
        </mxCell>
        <mxCell id="D1fkWWdUB6Wvw9z3cZuo-438" style="edgeStyle=orthogonalEdgeStyle;rounded=1;orthogonalLoop=1;jettySize=auto;html=1;entryX=0;entryY=0.5;entryDx=0;entryDy=0;entryPerimeter=0;endArrow=classic;endFill=1;" parent="77e6c97f196da883-1" source="D1fkWWdUB6Wvw9z3cZuo-433" target="D1fkWWdUB6Wvw9z3cZuo-437" edge="1">
          <mxGeometry relative="1" as="geometry"/>
        </mxCell>
        <mxCell id="D1fkWWdUB6Wvw9z3cZuo-439" style="edgeStyle=orthogonalEdgeStyle;rounded=1;orthogonalLoop=1;jettySize=auto;html=1;endArrow=classic;endFill=1;entryX=0;entryY=0.5;entryDx=0;entryDy=0;" parent="77e6c97f196da883-1" source="D1fkWWdUB6Wvw9z3cZuo-437" target="D1fkWWdUB6Wvw9z3cZuo-440" edge="1">
          <mxGeometry relative="1" as="geometry">
            <mxPoint x="430" y="2461.5588235294117" as="targetPoint"/>
          </mxGeometry>
        </mxCell>
        <mxCell id="D1fkWWdUB6Wvw9z3cZuo-441" style="edgeStyle=orthogonalEdgeStyle;rounded=1;orthogonalLoop=1;jettySize=auto;html=1;endArrow=classic;endFill=1;entryX=1;entryY=0.5;entryDx=0;entryDy=0;" parent="77e6c97f196da883-1" source="D1fkWWdUB6Wvw9z3cZuo-440" target="D1fkWWdUB6Wvw9z3cZuo-442" edge="1">
          <mxGeometry relative="1" as="geometry">
            <mxPoint x="160" y="2520" as="targetPoint"/>
            <Array as="points">
              <mxPoint x="503" y="2520"/>
            </Array>
          </mxGeometry>
        </mxCell>
        <mxCell id="77e6c97f196da883-3" value="平台2" style="swimlane;html=1;startSize=20;" parent="77e6c97f196da883-1" vertex="1">
          <mxGeometry x="390" y="20" width="900" height="2965" as="geometry"/>
        </mxCell>
        <mxCell id="D1fkWWdUB6Wvw9z3cZuo-397" value="" style="edgeStyle=orthogonalEdgeStyle;rounded=1;orthogonalLoop=1;jettySize=auto;html=1;endArrow=classic;endFill=1;" parent="77e6c97f196da883-3" source="zzndENpx0boXt8F3LTmc-2" target="D1fkWWdUB6Wvw9z3cZuo-398" edge="1">
          <mxGeometry relative="1" as="geometry">
            <mxPoint x="535" y="234.00000000000023" as="targetPoint"/>
          </mxGeometry>
        </mxCell>
        <mxCell id="zzndENpx0boXt8F3LTmc-2" value="&lt;span style=&quot;font-family: &amp;#34;verdana&amp;#34; ; font-size: 8px ; white-space: normal&quot;&gt;设备信息&lt;br&gt;导入设备表&lt;br&gt;（未收货）&lt;br&gt;库存状态：未安装&lt;br&gt;入库时间：当前时间&lt;/span&gt;&lt;span style=&quot;font-family: &amp;#34;verdana&amp;#34; ; font-size: 8px ; white-space: normal&quot;&gt;&lt;br&gt;&lt;/span&gt;" style="rounded=0;whiteSpace=wrap;html=1;" parent="77e6c97f196da883-3" vertex="1">
          <mxGeometry x="325" y="189.5" width="130" height="89" as="geometry"/>
        </mxCell>
        <mxCell id="D1fkWWdUB6Wvw9z3cZuo-120" style="edgeStyle=orthogonalEdgeStyle;rounded=1;orthogonalLoop=1;jettySize=auto;html=1;entryX=0.5;entryY=0;entryDx=0;entryDy=0;" parent="77e6c97f196da883-3" source="zzndENpx0boXt8F3LTmc-6" target="D1fkWWdUB6Wvw9z3cZuo-119" edge="1">
          <mxGeometry relative="1" as="geometry"/>
        </mxCell>
        <mxCell id="zzndENpx0boXt8F3LTmc-6" value="&lt;span style=&quot;font-family: &amp;#34;verdana&amp;#34; ; font-size: 8px ; white-space: normal&quot;&gt;集合&lt;br&gt;各个设备的各种信息&lt;br&gt;库存状态、入库时间&lt;br&gt;&lt;br&gt;&lt;/span&gt;" style="rounded=0;whiteSpace=wrap;html=1;" parent="77e6c97f196da883-3" vertex="1">
          <mxGeometry x="75" y="503" width="152" height="67" as="geometry"/>
        </mxCell>
        <mxCell id="zzndENpx0boXt8F3LTmc-17" value="设备（未收货）" style="shape=cylinder;whiteSpace=wrap;html=1;boundedLbl=1;backgroundOutline=1;" parent="77e6c97f196da883-3" vertex="1">
          <mxGeometry x="740" y="53.5" width="60" height="80" as="geometry"/>
        </mxCell>
        <mxCell id="zzndENpx0boXt8F3LTmc-20" value="设备（确认收货）" style="shape=cylinder;whiteSpace=wrap;html=1;boundedLbl=1;backgroundOutline=1;" parent="77e6c97f196da883-3" vertex="1">
          <mxGeometry x="537" y="592.5" width="60" height="80" as="geometry"/>
        </mxCell>
        <mxCell id="zzndENpx0boXt8F3LTmc-24" value="&lt;span style=&quot;font-family: &amp;#34;verdana&amp;#34; ; font-size: 8px ; white-space: normal&quot;&gt;根据设备号（首位为0需要兼容）&lt;br&gt;查询通车设备信息、车辆信息、渠道信息&lt;br&gt;&lt;/span&gt;" style="rounded=0;whiteSpace=wrap;html=1;" parent="77e6c97f196da883-3" vertex="1">
          <mxGeometry x="64.5" y="805.5" width="120" height="60" as="geometry"/>
        </mxCell>
        <mxCell id="zzndENpx0boXt8F3LTmc-31" value="调拨设备&lt;br&gt;" style="rounded=0;whiteSpace=wrap;html=1;" parent="77e6c97f196da883-3" vertex="1">
          <mxGeometry x="447" y="1000.5" width="220" height="73" as="geometry"/>
        </mxCell>
        <mxCell id="zzndENpx0boXt8F3LTmc-33" value="详见rap：&lt;a href=&quot;http://192.168.1.199:5000/organization/repository/editor?id=55&amp;amp;mod=195&amp;amp;itf=1975&quot;&gt;http://192.168.1.199:5000/organization/repository/editor?id=55&amp;amp;mod=195&amp;amp;itf=197&lt;/a&gt;6" style="strokeWidth=2;html=1;shape=mxgraph.flowchart.annotation_2;align=left;labelPosition=right;pointerEvents=1;connectable=0;" parent="77e6c97f196da883-3" vertex="1">
          <mxGeometry x="187" y="785.5" width="50" height="100" as="geometry"/>
        </mxCell>
        <mxCell id="zzndENpx0boXt8F3LTmc-34" value="详见rap：&lt;a href=&quot;http://192.168.1.199:5000/organization/repository/editor?id=55&amp;amp;mod=195&amp;amp;itf=1974&quot;&gt;http://192.168.1.199:5000/organization/repository/editor?id=55&amp;amp;mod=195&amp;amp;itf=1974&lt;/a&gt;" style="strokeWidth=2;html=1;shape=mxgraph.flowchart.annotation_2;align=left;labelPosition=right;pointerEvents=1;connectable=0;rotation=0;" parent="77e6c97f196da883-3" vertex="1">
          <mxGeometry x="800" y="53.5" width="50" height="100" as="geometry"/>
        </mxCell>
        <mxCell id="zzndENpx0boXt8F3LTmc-35" value="详见rap：&lt;a href=&quot;http://192.168.1.199:5000/organization/repository/editor?id=55&amp;amp;mod=195&amp;amp;itf=1975&quot;&gt;http://192.168.1.199:5000/organization/repository/editor?id=55&amp;amp;mod=195&amp;amp;itf=1975&lt;/a&gt;" style="strokeWidth=2;html=1;shape=mxgraph.flowchart.annotation_2;align=left;labelPosition=right;pointerEvents=1;connectable=0;rotation=0;" parent="77e6c97f196da883-3" vertex="1">
          <mxGeometry x="617" y="586.5" width="50" height="100" as="geometry"/>
        </mxCell>
        <mxCell id="zzndENpx0boXt8F3LTmc-39" value="详见rap：&lt;a href=&quot;http://192.168.1.199:5000/organization/repository/editor?id=55&amp;amp;mod=195&amp;amp;itf=1975&quot;&gt;http://192.168.1.199:5000/organization/repository/editor?id=55&amp;amp;mod=195&amp;amp;itf=197&lt;/a&gt;7" style="strokeWidth=2;html=1;shape=mxgraph.flowchart.annotation_2;align=left;labelPosition=right;pointerEvents=1;connectable=0;" parent="77e6c97f196da883-3" vertex="1">
          <mxGeometry x="669.5" y="987" width="50" height="100" as="geometry"/>
        </mxCell>
        <mxCell id="O4f6FyTcEPhxwh4ODSin-27" value="&lt;span style=&quot;white-space: normal&quot;&gt;调拨车辆&lt;/span&gt;" style="rounded=0;whiteSpace=wrap;html=1;" parent="77e6c97f196da883-3" vertex="1">
          <mxGeometry x="444.5" y="887.5" width="225" height="78" as="geometry"/>
        </mxCell>
        <mxCell id="O4f6FyTcEPhxwh4ODSin-31" value="详见rap：&lt;a href=&quot;http://192.168.1.199:5000/organization/repository/editor?id=55&amp;amp;mod=195&amp;amp;itf=1975&quot;&gt;http://192.168.1.199:5000/organization/repository/editor?id=55&amp;amp;mod=195&amp;amp;itf=19&lt;/a&gt;81" style="strokeWidth=2;html=1;shape=mxgraph.flowchart.annotation_2;align=left;labelPosition=right;pointerEvents=1;connectable=0;" parent="77e6c97f196da883-3" vertex="1">
          <mxGeometry x="669.5" y="876.5" width="50" height="100" as="geometry"/>
        </mxCell>
        <mxCell id="D1fkWWdUB6Wvw9z3cZuo-45" value="&lt;span style=&quot;font-family: &amp;#34;verdana&amp;#34; ; font-size: 8px&quot;&gt;记录&amp;nbsp;&lt;/span&gt;&lt;br style=&quot;font-family: &amp;#34;verdana&amp;#34; ; font-size: 8px&quot;&gt;&lt;span style=&quot;font-family: &amp;#34;verdana&amp;#34; ; font-size: 8px&quot;&gt;设备-发货任务号&lt;/span&gt;&lt;br style=&quot;font-family: &amp;#34;verdana&amp;#34; ; font-size: 8px&quot;&gt;&lt;span style=&quot;font-family: &amp;#34;verdana&amp;#34; ; font-size: 8px&quot;&gt;关系信息&lt;/span&gt;" style="rounded=0;whiteSpace=wrap;html=1;" parent="77e6c97f196da883-3" vertex="1">
          <mxGeometry x="745" y="1442" width="120" height="60" as="geometry"/>
        </mxCell>
        <mxCell id="D1fkWWdUB6Wvw9z3cZuo-119" value="&lt;span style=&quot;font-family: &amp;#34;verdana&amp;#34; ; font-size: 8px ; white-space: normal&quot;&gt;更新为设备(已收货)&lt;br&gt;库存状态：传参&lt;br&gt;入库时间：&lt;/span&gt;&lt;span style=&quot;font-family: &amp;#34;verdana&amp;#34; ; font-size: 8px&quot;&gt;传参&lt;/span&gt;&lt;span style=&quot;font-family: &amp;#34;verdana&amp;#34; ; font-size: 8px ; white-space: normal&quot;&gt;&lt;br&gt;&lt;/span&gt;" style="rounded=0;whiteSpace=wrap;html=1;" parent="77e6c97f196da883-3" vertex="1">
          <mxGeometry x="267" y="570" width="135" height="80" as="geometry"/>
        </mxCell>
        <mxCell id="D1fkWWdUB6Wvw9z3cZuo-124" value="首次激活时间&lt;a href=&quot;https://www.processon.com/view/link/5da3e336e4b0ece757cae595&quot;&gt;https://www.processon.com/view/link/5da3e336e4b0ece757cae595&lt;/a&gt;" style="strokeWidth=2;html=1;shape=mxgraph.flowchart.annotation_2;align=left;labelPosition=right;pointerEvents=1;connectable=0;" parent="77e6c97f196da883-3" vertex="1">
          <mxGeometry x="745" y="1260" width="50" height="100" as="geometry"/>
        </mxCell>
        <mxCell id="D1fkWWdUB6Wvw9z3cZuo-152" value="" style="edgeStyle=orthogonalEdgeStyle;rounded=1;orthogonalLoop=1;jettySize=auto;html=1;" parent="77e6c97f196da883-3" source="D1fkWWdUB6Wvw9z3cZuo-125" target="D1fkWWdUB6Wvw9z3cZuo-150" edge="1">
          <mxGeometry relative="1" as="geometry"/>
        </mxCell>
        <mxCell id="D1fkWWdUB6Wvw9z3cZuo-154" value="是" style="text;html=1;resizable=0;points=[];align=center;verticalAlign=middle;labelBackgroundColor=#ffffff;" parent="D1fkWWdUB6Wvw9z3cZuo-152" vertex="1" connectable="0">
          <mxGeometry x="-0.5832" y="-1" relative="1" as="geometry">
            <mxPoint as="offset"/>
          </mxGeometry>
        </mxCell>
        <mxCell id="D1fkWWdUB6Wvw9z3cZuo-125" value="&lt;span style=&quot;white-space: normal&quot;&gt;是否是跨结算客户调拨&lt;/span&gt;" style="rhombus;whiteSpace=wrap;html=1;" parent="77e6c97f196da883-3" vertex="1">
          <mxGeometry x="325" y="1433" width="165" height="78" as="geometry"/>
        </mxCell>
        <mxCell id="D1fkWWdUB6Wvw9z3cZuo-160" style="edgeStyle=orthogonalEdgeStyle;rounded=1;orthogonalLoop=1;jettySize=auto;html=1;entryX=0.5;entryY=0;entryDx=0;entryDy=0;" parent="77e6c97f196da883-3" source="D1fkWWdUB6Wvw9z3cZuo-128" target="D1fkWWdUB6Wvw9z3cZuo-125" edge="1">
          <mxGeometry relative="1" as="geometry">
            <Array as="points">
              <mxPoint x="679.5" y="1393"/>
              <mxPoint x="407.5" y="1393"/>
            </Array>
          </mxGeometry>
        </mxCell>
        <mxCell id="D1fkWWdUB6Wvw9z3cZuo-128" value="&lt;span style=&quot;white-space: normal&quot;&gt;更新&lt;/span&gt;&lt;br style=&quot;white-space: normal&quot;&gt;&lt;span style=&quot;white-space: normal&quot;&gt;重置激活时间和未激活状态&lt;/span&gt;" style="shape=process;whiteSpace=wrap;html=1;backgroundOutline=1;" parent="77e6c97f196da883-3" vertex="1">
          <mxGeometry x="620" y="1280" width="120" height="60" as="geometry"/>
        </mxCell>
        <mxCell id="D1fkWWdUB6Wvw9z3cZuo-136" style="edgeStyle=orthogonalEdgeStyle;rounded=1;orthogonalLoop=1;jettySize=auto;html=1;" parent="77e6c97f196da883-3" source="D1fkWWdUB6Wvw9z3cZuo-134" target="D1fkWWdUB6Wvw9z3cZuo-128" edge="1">
          <mxGeometry relative="1" as="geometry"/>
        </mxCell>
        <mxCell id="D1fkWWdUB6Wvw9z3cZuo-138" value="需要" style="text;html=1;resizable=0;points=[];align=center;verticalAlign=middle;labelBackgroundColor=#ffffff;" parent="D1fkWWdUB6Wvw9z3cZuo-136" vertex="1" connectable="0">
          <mxGeometry x="0.003" y="-47" relative="1" as="geometry">
            <mxPoint x="-27.5" y="-44.5" as="offset"/>
          </mxGeometry>
        </mxCell>
        <mxCell id="D1fkWWdUB6Wvw9z3cZuo-139" style="edgeStyle=orthogonalEdgeStyle;rounded=1;orthogonalLoop=1;jettySize=auto;html=1;entryX=0.5;entryY=0;entryDx=0;entryDy=0;exitX=0.5;exitY=1;exitDx=0;exitDy=0;" parent="77e6c97f196da883-3" source="D1fkWWdUB6Wvw9z3cZuo-134" target="D1fkWWdUB6Wvw9z3cZuo-125" edge="1">
          <mxGeometry relative="1" as="geometry">
            <mxPoint x="437.5" y="1383.4705882352941" as="sourcePoint"/>
          </mxGeometry>
        </mxCell>
        <mxCell id="D1fkWWdUB6Wvw9z3cZuo-142" value="不需要" style="text;html=1;resizable=0;points=[];align=center;verticalAlign=middle;labelBackgroundColor=#ffffff;" parent="D1fkWWdUB6Wvw9z3cZuo-139" vertex="1" connectable="0">
          <mxGeometry x="-0.2465" y="-4" relative="1" as="geometry">
            <mxPoint as="offset"/>
          </mxGeometry>
        </mxCell>
        <mxCell id="D1fkWWdUB6Wvw9z3cZuo-134" value="判断&lt;br&gt;首次激活时间&lt;br&gt;未激活状态" style="rhombus;whiteSpace=wrap;html=1;" parent="77e6c97f196da883-3" vertex="1">
          <mxGeometry x="325" y="1271" width="165" height="78" as="geometry"/>
        </mxCell>
        <mxCell id="D1fkWWdUB6Wvw9z3cZuo-153" value="" style="edgeStyle=orthogonalEdgeStyle;rounded=1;orthogonalLoop=1;jettySize=auto;html=1;" parent="77e6c97f196da883-3" source="D1fkWWdUB6Wvw9z3cZuo-150" target="D1fkWWdUB6Wvw9z3cZuo-45" edge="1">
          <mxGeometry relative="1" as="geometry"/>
        </mxCell>
        <mxCell id="D1fkWWdUB6Wvw9z3cZuo-150" value="&lt;span style=&quot;font-family: &amp;#34;verdana&amp;#34; ; font-size: 8px ; white-space: normal&quot;&gt;更新&lt;br&gt;设备信息&lt;br&gt;（未收货)&lt;br&gt;库存状态：未安装&lt;br&gt;入库时间：当前时间&lt;br&gt;&lt;/span&gt;" style="rounded=0;whiteSpace=wrap;html=1;" parent="77e6c97f196da883-3" vertex="1">
          <mxGeometry x="562.5" y="1427.264705882353" width="130" height="89" as="geometry"/>
        </mxCell>
        <mxCell id="D1fkWWdUB6Wvw9z3cZuo-157" style="edgeStyle=orthogonalEdgeStyle;rounded=1;orthogonalLoop=1;jettySize=auto;html=1;exitX=0.5;exitY=1;exitDx=0;exitDy=0;entryX=0.5;entryY=0;entryDx=0;entryDy=0;" parent="77e6c97f196da883-3" source="D1fkWWdUB6Wvw9z3cZuo-45" target="D1fkWWdUB6Wvw9z3cZuo-312" edge="1">
          <mxGeometry relative="1" as="geometry">
            <mxPoint x="402.5" y="1618.666666666667" as="targetPoint"/>
            <Array as="points">
              <mxPoint x="805" y="1558"/>
              <mxPoint x="408" y="1558"/>
              <mxPoint x="408" y="1619"/>
            </Array>
          </mxGeometry>
        </mxCell>
        <mxCell id="D1fkWWdUB6Wvw9z3cZuo-155" style="edgeStyle=orthogonalEdgeStyle;rounded=1;orthogonalLoop=1;jettySize=auto;html=1;" parent="77e6c97f196da883-3" source="D1fkWWdUB6Wvw9z3cZuo-125" target="D1fkWWdUB6Wvw9z3cZuo-312" edge="1">
          <mxGeometry relative="1" as="geometry">
            <mxPoint x="407.5" y="1618.5" as="targetPoint"/>
            <Array as="points"/>
          </mxGeometry>
        </mxCell>
        <mxCell id="D1fkWWdUB6Wvw9z3cZuo-156" value="否" style="text;html=1;resizable=0;points=[];align=center;verticalAlign=middle;labelBackgroundColor=#ffffff;" parent="D1fkWWdUB6Wvw9z3cZuo-155" vertex="1" connectable="0">
          <mxGeometry x="-0.7017" y="2" relative="1" as="geometry">
            <mxPoint as="offset"/>
          </mxGeometry>
        </mxCell>
        <mxCell id="D1fkWWdUB6Wvw9z3cZuo-180" style="edgeStyle=orthogonalEdgeStyle;rounded=1;orthogonalLoop=1;jettySize=auto;html=1;entryX=0.5;entryY=0;entryDx=0;entryDy=0;" parent="77e6c97f196da883-3" source="D1fkWWdUB6Wvw9z3cZuo-175" target="D1fkWWdUB6Wvw9z3cZuo-177" edge="1">
          <mxGeometry relative="1" as="geometry"/>
        </mxCell>
        <mxCell id="D1fkWWdUB6Wvw9z3cZuo-175" value="调拨车辆" style="rounded=1;whiteSpace=wrap;html=1;shadow=0;labelBackgroundColor=none;strokeColor=#6c8ebf;strokeWidth=5;fillColor=#dae8fc;fontFamily=Verdana;fontSize=8;align=center;" parent="77e6c97f196da883-3" vertex="1">
          <mxGeometry x="164.5" y="966.5" width="79" height="41" as="geometry"/>
        </mxCell>
        <mxCell id="s87jRDJJuABOHA1_RDAK-1" value="" style="edgeStyle=orthogonalEdgeStyle;rounded=1;orthogonalLoop=1;jettySize=auto;html=1;endArrow=classic;endFill=1;" parent="77e6c97f196da883-3" source="D1fkWWdUB6Wvw9z3cZuo-177" target="D1fkWWdUB6Wvw9z3cZuo-175" edge="1">
          <mxGeometry relative="1" as="geometry"/>
        </mxCell>
        <mxCell id="D1fkWWdUB6Wvw9z3cZuo-177" value="是否&lt;br&gt;同一结算客户调拨" style="rhombus;whiteSpace=wrap;html=1;" parent="77e6c97f196da883-3" vertex="1">
          <mxGeometry x="147.5" y="1055" width="113" height="81" as="geometry"/>
        </mxCell>
        <mxCell id="D1fkWWdUB6Wvw9z3cZuo-179" value="结束" style="rounded=1;whiteSpace=wrap;html=1;shadow=0;labelBackgroundColor=none;strokeColor=#6c8ebf;strokeWidth=1;fillColor=#dae8fc;fontFamily=Verdana;fontSize=8;align=center;" parent="77e6c97f196da883-3" vertex="1">
          <mxGeometry x="323" y="1075" width="79" height="41" as="geometry"/>
        </mxCell>
        <mxCell id="D1fkWWdUB6Wvw9z3cZuo-178" style="edgeStyle=orthogonalEdgeStyle;rounded=1;orthogonalLoop=1;jettySize=auto;html=1;entryX=0;entryY=0.5;entryDx=0;entryDy=0;" parent="77e6c97f196da883-3" source="D1fkWWdUB6Wvw9z3cZuo-177" target="D1fkWWdUB6Wvw9z3cZuo-179" edge="1">
          <mxGeometry relative="1" as="geometry">
            <mxPoint x="299.49999999999955" y="1073.5" as="targetPoint"/>
          </mxGeometry>
        </mxCell>
        <mxCell id="D1fkWWdUB6Wvw9z3cZuo-181" value="否" style="text;html=1;resizable=0;points=[];align=center;verticalAlign=middle;labelBackgroundColor=#ffffff;" parent="D1fkWWdUB6Wvw9z3cZuo-178" vertex="1" connectable="0">
          <mxGeometry x="-0.4319" y="-6" relative="1" as="geometry">
            <mxPoint as="offset"/>
          </mxGeometry>
        </mxCell>
        <mxCell id="D1fkWWdUB6Wvw9z3cZuo-195" value="渠道&lt;br&gt;二次确认收货" style="rounded=1;whiteSpace=wrap;html=1;shadow=0;labelBackgroundColor=none;strokeColor=#000000;strokeWidth=3;fillColor=#ffffff;fontFamily=Verdana;fontSize=8;fontColor=#000000;align=center;" parent="77e6c97f196da883-3" vertex="1">
          <mxGeometry x="-346" y="1736.5588235294117" width="97" height="40" as="geometry"/>
        </mxCell>
        <mxCell id="D1fkWWdUB6Wvw9z3cZuo-196" value="渠道&lt;br&gt;二次确认收货通知" style="rounded=1;whiteSpace=wrap;html=1;shadow=0;labelBackgroundColor=none;strokeColor=#000000;strokeWidth=3;fillColor=#ffffff;fontFamily=Verdana;fontSize=8;fontColor=#000000;align=center;" parent="77e6c97f196da883-3" vertex="1">
          <mxGeometry x="-346" y="1797" width="107" height="43" as="geometry"/>
        </mxCell>
        <mxCell id="D1fkWWdUB6Wvw9z3cZuo-197" style="edgeStyle=orthogonalEdgeStyle;rounded=0;orthogonalLoop=1;jettySize=auto;html=1;entryX=0;entryY=0.5;entryDx=0;entryDy=0;entryPerimeter=0;" parent="77e6c97f196da883-3" source="D1fkWWdUB6Wvw9z3cZuo-195" target="D1fkWWdUB6Wvw9z3cZuo-202" edge="1">
          <mxGeometry relative="1" as="geometry">
            <mxPoint x="-244" y="1636.4411764705883" as="targetPoint"/>
          </mxGeometry>
        </mxCell>
        <mxCell id="D1fkWWdUB6Wvw9z3cZuo-202" value="mq" style="strokeWidth=1;html=1;shape=mxgraph.flowchart.direct_data;whiteSpace=wrap;" parent="77e6c97f196da883-3" vertex="1">
          <mxGeometry x="-175" y="1736.5588235294117" width="105" height="40" as="geometry"/>
        </mxCell>
        <mxCell id="D1fkWWdUB6Wvw9z3cZuo-204" value="&lt;span style=&quot;font-family: &amp;#34;verdana&amp;#34; ; font-size: 8px ; white-space: normal&quot;&gt;根据&amp;nbsp;&lt;/span&gt;&lt;span style=&quot;font-family: &amp;#34;verdana&amp;#34; ; font-size: 8px ; white-space: normal&quot;&gt;发货任务号&amp;nbsp;查询设备&lt;br&gt;&lt;/span&gt;" style="rounded=0;whiteSpace=wrap;html=1;" parent="77e6c97f196da883-3" vertex="1">
          <mxGeometry x="56" y="1736.5588235294117" width="150" height="40" as="geometry"/>
        </mxCell>
        <mxCell id="D1fkWWdUB6Wvw9z3cZuo-198" style="edgeStyle=orthogonalEdgeStyle;rounded=0;orthogonalLoop=1;jettySize=auto;html=1;" parent="77e6c97f196da883-3" source="D1fkWWdUB6Wvw9z3cZuo-202" target="D1fkWWdUB6Wvw9z3cZuo-204" edge="1">
          <mxGeometry relative="1" as="geometry">
            <mxPoint x="-169" y="1636.4411764705883" as="sourcePoint"/>
          </mxGeometry>
        </mxCell>
        <mxCell id="D1fkWWdUB6Wvw9z3cZuo-205" value="&lt;span style=&quot;font-family: &amp;#34;verdana&amp;#34; ; font-size: 8px ; white-space: normal&quot;&gt;更新为设备(已收货)&lt;br&gt;库存状态：erp传参&lt;br&gt;入库时间：&lt;/span&gt;&lt;span style=&quot;font-family: &amp;#34;verdana&amp;#34; ; font-size: 8px&quot;&gt;erp传参&lt;/span&gt;&lt;span style=&quot;font-family: &amp;#34;verdana&amp;#34; ; font-size: 8px ; white-space: normal&quot;&gt;&lt;br&gt;&lt;/span&gt;" style="rounded=0;whiteSpace=wrap;html=1;" parent="77e6c97f196da883-3" vertex="1">
          <mxGeometry x="296" y="1716.5588235294117" width="135" height="80" as="geometry"/>
        </mxCell>
        <mxCell id="D1fkWWdUB6Wvw9z3cZuo-200" style="edgeStyle=orthogonalEdgeStyle;rounded=1;orthogonalLoop=1;jettySize=auto;html=1;" parent="77e6c97f196da883-3" source="D1fkWWdUB6Wvw9z3cZuo-205" target="D1fkWWdUB6Wvw9z3cZuo-196" edge="1">
          <mxGeometry relative="1" as="geometry">
            <mxPoint x="-69.16666666666652" y="1818.666666666667" as="targetPoint"/>
            <Array as="points">
              <mxPoint x="369" y="1819"/>
            </Array>
          </mxGeometry>
        </mxCell>
        <mxCell id="D1fkWWdUB6Wvw9z3cZuo-203" style="edgeStyle=orthogonalEdgeStyle;rounded=1;orthogonalLoop=1;jettySize=auto;html=1;entryX=0;entryY=0.5;entryDx=0;entryDy=0;" parent="77e6c97f196da883-3" source="D1fkWWdUB6Wvw9z3cZuo-204" target="D1fkWWdUB6Wvw9z3cZuo-205" edge="1">
          <mxGeometry relative="1" as="geometry"/>
        </mxCell>
        <mxCell id="D1fkWWdUB6Wvw9z3cZuo-207" value="" style="shape=link;html=1;" parent="77e6c97f196da883-3" edge="1">
          <mxGeometry width="50" height="50" relative="1" as="geometry">
            <mxPoint x="-360.5" y="1703.5588235294117" as="sourcePoint"/>
            <mxPoint x="859.4999999999995" y="1703.5588235294117" as="targetPoint"/>
          </mxGeometry>
        </mxCell>
        <mxCell id="D1fkWWdUB6Wvw9z3cZuo-208" value="" style="shape=link;html=1;" parent="77e6c97f196da883-3" edge="1">
          <mxGeometry width="50" height="50" relative="1" as="geometry">
            <mxPoint x="-359" y="1876.5" as="sourcePoint"/>
            <mxPoint x="860.5" y="1876.5" as="targetPoint"/>
          </mxGeometry>
        </mxCell>
        <mxCell id="D1fkWWdUB6Wvw9z3cZuo-206" value="" style="shape=link;html=1;" parent="77e6c97f196da883-3" edge="1">
          <mxGeometry width="50" height="50" relative="1" as="geometry">
            <mxPoint x="-359" y="400" as="sourcePoint"/>
            <mxPoint x="860.9999999999995" y="400" as="targetPoint"/>
          </mxGeometry>
        </mxCell>
        <mxCell id="D1fkWWdUB6Wvw9z3cZuo-212" value="添加设备or批量添加设备" style="rounded=1;whiteSpace=wrap;html=1;shadow=0;labelBackgroundColor=none;strokeColor=#6c8ebf;strokeWidth=3;fillColor=#dae8fc;fontFamily=Verdana;fontSize=8;align=center;" parent="77e6c97f196da883-3" vertex="1">
          <mxGeometry x="15.5" y="40" width="153" height="38" as="geometry"/>
        </mxCell>
        <mxCell id="D1fkWWdUB6Wvw9z3cZuo-217" style="edgeStyle=orthogonalEdgeStyle;rounded=1;orthogonalLoop=1;jettySize=auto;html=1;" parent="77e6c97f196da883-3" source="D1fkWWdUB6Wvw9z3cZuo-215" target="zzndENpx0boXt8F3LTmc-2" edge="1">
          <mxGeometry relative="1" as="geometry"/>
        </mxCell>
        <mxCell id="D1fkWWdUB6Wvw9z3cZuo-220" value="平台" style="text;html=1;resizable=0;points=[];align=center;verticalAlign=middle;labelBackgroundColor=#ffffff;" parent="D1fkWWdUB6Wvw9z3cZuo-217" vertex="1" connectable="0">
          <mxGeometry x="0.0048" y="-23" relative="1" as="geometry">
            <mxPoint x="-24" y="-22" as="offset"/>
          </mxGeometry>
        </mxCell>
        <mxCell id="D1fkWWdUB6Wvw9z3cZuo-218" style="edgeStyle=orthogonalEdgeStyle;rounded=1;orthogonalLoop=1;jettySize=auto;html=1;exitX=0.5;exitY=0;exitDx=0;exitDy=0;entryX=0;entryY=0.5;entryDx=0;entryDy=0;" parent="77e6c97f196da883-3" source="D1fkWWdUB6Wvw9z3cZuo-215" target="D1fkWWdUB6Wvw9z3cZuo-395" edge="1">
          <mxGeometry relative="1" as="geometry">
            <mxPoint x="234" y="137" as="targetPoint"/>
          </mxGeometry>
        </mxCell>
        <mxCell id="D1fkWWdUB6Wvw9z3cZuo-219" value="erp" style="text;html=1;resizable=0;points=[];align=center;verticalAlign=middle;labelBackgroundColor=#ffffff;" parent="D1fkWWdUB6Wvw9z3cZuo-218" vertex="1" connectable="0">
          <mxGeometry x="-0.32" y="1" relative="1" as="geometry">
            <mxPoint as="offset"/>
          </mxGeometry>
        </mxCell>
        <mxCell id="D1fkWWdUB6Wvw9z3cZuo-215" value="平台 or erp" style="rhombus;whiteSpace=wrap;html=1;strokeWidth=1;" parent="77e6c97f196da883-3" vertex="1">
          <mxGeometry x="55.5" y="193" width="146" height="82" as="geometry"/>
        </mxCell>
        <mxCell id="D1fkWWdUB6Wvw9z3cZuo-229" style="edgeStyle=orthogonalEdgeStyle;rounded=1;orthogonalLoop=1;jettySize=auto;html=1;entryX=0.5;entryY=0;entryDx=0;entryDy=0;" parent="77e6c97f196da883-3" target="D1fkWWdUB6Wvw9z3cZuo-134" edge="1">
          <mxGeometry relative="1" as="geometry">
            <mxPoint x="340" y="1211" as="sourcePoint"/>
            <mxPoint x="280" y="1280" as="targetPoint"/>
            <Array as="points">
              <mxPoint x="408" y="1211"/>
            </Array>
          </mxGeometry>
        </mxCell>
        <mxCell id="D1fkWWdUB6Wvw9z3cZuo-234" value="erp" style="text;html=1;resizable=0;points=[];align=center;verticalAlign=middle;labelBackgroundColor=#ffffff;" parent="D1fkWWdUB6Wvw9z3cZuo-229" vertex="1" connectable="0">
          <mxGeometry x="-0.374" y="-2" relative="1" as="geometry">
            <mxPoint as="offset"/>
          </mxGeometry>
        </mxCell>
        <mxCell id="D1fkWWdUB6Wvw9z3cZuo-226" value="erp or 平台" style="rhombus;whiteSpace=wrap;html=1;" parent="77e6c97f196da883-3" vertex="1">
          <mxGeometry x="201.5" y="1186.5" width="138" height="50" as="geometry"/>
        </mxCell>
        <mxCell id="D1fkWWdUB6Wvw9z3cZuo-313" style="rounded=1;orthogonalLoop=1;jettySize=auto;html=1;entryX=0.006;entryY=-0.016;entryDx=0;entryDy=0;entryPerimeter=0;exitX=1.01;exitY=1.04;exitDx=0;exitDy=0;exitPerimeter=0;dashed=1;endArrow=none;endFill=0;" parent="77e6c97f196da883-3" source="D1fkWWdUB6Wvw9z3cZuo-309" target="D1fkWWdUB6Wvw9z3cZuo-312" edge="1">
          <mxGeometry relative="1" as="geometry">
            <Array as="points"/>
          </mxGeometry>
        </mxCell>
        <mxCell id="D1fkWWdUB6Wvw9z3cZuo-314" style="edgeStyle=orthogonalEdgeStyle;rounded=1;orthogonalLoop=1;jettySize=auto;html=1;endArrow=classic;endFill=1;" parent="77e6c97f196da883-3" source="D1fkWWdUB6Wvw9z3cZuo-309" target="D1fkWWdUB6Wvw9z3cZuo-311" edge="1">
          <mxGeometry relative="1" as="geometry"/>
        </mxCell>
        <mxCell id="D1fkWWdUB6Wvw9z3cZuo-309" value="平台调拨逻辑&lt;br&gt;保存设备or车辆履历信息" style="rounded=0;whiteSpace=wrap;html=1;" parent="77e6c97f196da883-3" vertex="1">
          <mxGeometry x="53" y="1319" width="143" height="42" as="geometry"/>
        </mxCell>
        <mxCell id="D1fkWWdUB6Wvw9z3cZuo-227" style="edgeStyle=orthogonalEdgeStyle;rounded=1;orthogonalLoop=1;jettySize=auto;html=1;exitX=0.5;exitY=1;exitDx=0;exitDy=0;" parent="77e6c97f196da883-3" source="D1fkWWdUB6Wvw9z3cZuo-226" target="D1fkWWdUB6Wvw9z3cZuo-309" edge="1">
          <mxGeometry relative="1" as="geometry">
            <mxPoint x="80" y="1340" as="targetPoint"/>
            <mxPoint x="100" y="1250" as="sourcePoint"/>
            <Array as="points">
              <mxPoint x="270" y="1236"/>
              <mxPoint x="270" y="1340"/>
            </Array>
          </mxGeometry>
        </mxCell>
        <mxCell id="D1fkWWdUB6Wvw9z3cZuo-228" value="平台" style="text;html=1;resizable=0;points=[];align=center;verticalAlign=middle;labelBackgroundColor=#ffffff;" parent="D1fkWWdUB6Wvw9z3cZuo-227" vertex="1" connectable="0">
          <mxGeometry x="0.3218" y="-1" relative="1" as="geometry">
            <mxPoint as="offset"/>
          </mxGeometry>
        </mxCell>
        <mxCell id="D1fkWWdUB6Wvw9z3cZuo-311" value="组装信息" style="rounded=0;whiteSpace=wrap;html=1;" parent="77e6c97f196da883-3" vertex="1">
          <mxGeometry x="53" y="1481" width="143" height="42" as="geometry"/>
        </mxCell>
        <mxCell id="D1fkWWdUB6Wvw9z3cZuo-312" value="平台调拨逻辑&lt;br&gt;保存设备or车辆履历信息" style="rounded=0;whiteSpace=wrap;html=1;" parent="77e6c97f196da883-3" vertex="1">
          <mxGeometry x="336" y="1628.5" width="143" height="42" as="geometry"/>
        </mxCell>
        <mxCell id="D1fkWWdUB6Wvw9z3cZuo-395" value="&lt;span style=&quot;font-family: &amp;#34;verdana&amp;#34; ; font-size: 8px ; white-space: normal&quot;&gt;设备信息&lt;br&gt;导入设备表&lt;br&gt;（未收货）&lt;br&gt;库存状态：传参&lt;br&gt;入库时间：&lt;/span&gt;&lt;span style=&quot;font-family: &amp;#34;verdana&amp;#34; ; font-size: 8px&quot;&gt;传参&lt;/span&gt;&lt;span style=&quot;font-family: &amp;#34;verdana&amp;#34; ; font-size: 8px ; white-space: normal&quot;&gt;&lt;br&gt;&lt;/span&gt;" style="rounded=0;whiteSpace=wrap;html=1;" parent="77e6c97f196da883-3" vertex="1">
          <mxGeometry x="323" y="53.5" width="130" height="89" as="geometry"/>
        </mxCell>
        <mxCell id="D1fkWWdUB6Wvw9z3cZuo-398" value="结束" style="rounded=1;whiteSpace=wrap;html=1;shadow=0;labelBackgroundColor=none;strokeColor=#6c8ebf;strokeWidth=1;fillColor=#dae8fc;fontFamily=Verdana;fontSize=8;align=center;" parent="77e6c97f196da883-3" vertex="1">
          <mxGeometry x="497.5" y="216" width="50" height="35" as="geometry"/>
        </mxCell>
        <mxCell id="D1fkWWdUB6Wvw9z3cZuo-400" style="rounded=1;orthogonalLoop=1;jettySize=auto;html=1;entryX=0.955;entryY=0.009;entryDx=0;entryDy=0;entryPerimeter=0;exitX=0.006;exitY=1.007;exitDx=0;exitDy=0;exitPerimeter=0;dashed=1;endArrow=none;endFill=0;" parent="77e6c97f196da883-3" source="D1fkWWdUB6Wvw9z3cZuo-395" target="zzndENpx0boXt8F3LTmc-2" edge="1">
          <mxGeometry relative="1" as="geometry">
            <mxPoint x="685.4299999999998" y="197.6800000000003" as="sourcePoint"/>
            <mxPoint x="824.8579999999997" y="462.828" as="targetPoint"/>
            <Array as="points"/>
          </mxGeometry>
        </mxCell>
        <mxCell id="D1fkWWdUB6Wvw9z3cZuo-402" value="平台拆装设备" style="rounded=1;whiteSpace=wrap;html=1;shadow=0;labelBackgroundColor=none;strokeColor=#6c8ebf;strokeWidth=3;fillColor=#dae8fc;fontFamily=Verdana;fontSize=8;align=center;" parent="77e6c97f196da883-3" vertex="1">
          <mxGeometry x="43" y="1910" width="98" height="40" as="geometry"/>
        </mxCell>
        <mxCell id="D1fkWWdUB6Wvw9z3cZuo-412" value="拆装车逻辑" style="rounded=0;whiteSpace=wrap;html=1;strokeWidth=1;" parent="77e6c97f196da883-3" vertex="1">
          <mxGeometry x="240" y="1990" width="120" height="60" as="geometry"/>
        </mxCell>
        <mxCell id="D1fkWWdUB6Wvw9z3cZuo-414" style="edgeStyle=orthogonalEdgeStyle;rounded=1;orthogonalLoop=1;jettySize=auto;html=1;endArrow=classic;endFill=1;" parent="77e6c97f196da883-3" source="D1fkWWdUB6Wvw9z3cZuo-413" target="D1fkWWdUB6Wvw9z3cZuo-412" edge="1">
          <mxGeometry relative="1" as="geometry"/>
        </mxCell>
        <mxCell id="D1fkWWdUB6Wvw9z3cZuo-413" value="" style="verticalLabelPosition=bottom;verticalAlign=top;html=1;strokeWidth=2;shape=mxgraph.flowchart.parallel_mode;pointerEvents=1" parent="77e6c97f196da883-3" vertex="1">
          <mxGeometry x="56" y="2000" width="95" height="40" as="geometry"/>
        </mxCell>
        <mxCell id="D1fkWWdUB6Wvw9z3cZuo-416" value="平台拆装设备通知" style="rounded=1;whiteSpace=wrap;html=1;shadow=0;labelBackgroundColor=none;strokeColor=#6c8ebf;strokeWidth=3;fillColor=#dae8fc;fontFamily=Verdana;fontSize=8;align=center;" parent="77e6c97f196da883-3" vertex="1">
          <mxGeometry x="243.5" y="1910" width="113" height="40" as="geometry"/>
        </mxCell>
        <mxCell id="D1fkWWdUB6Wvw9z3cZuo-415" style="edgeStyle=orthogonalEdgeStyle;rounded=1;orthogonalLoop=1;jettySize=auto;html=1;endArrow=classic;endFill=1;" parent="77e6c97f196da883-3" source="D1fkWWdUB6Wvw9z3cZuo-412" target="D1fkWWdUB6Wvw9z3cZuo-416" edge="1">
          <mxGeometry relative="1" as="geometry">
            <mxPoint x="300" y="1960" as="targetPoint"/>
          </mxGeometry>
        </mxCell>
        <mxCell id="D1fkWWdUB6Wvw9z3cZuo-425" value="分布式设备锁" style="text;html=1;resizable=0;points=[];autosize=1;align=left;verticalAlign=top;spacingTop=-4;" parent="77e6c97f196da883-3" vertex="1">
          <mxGeometry x="57.5" y="2040" width="90" height="20" as="geometry"/>
        </mxCell>
        <mxCell id="D1fkWWdUB6Wvw9z3cZuo-429" style="edgeStyle=orthogonalEdgeStyle;rounded=1;orthogonalLoop=1;jettySize=auto;html=1;entryX=0;entryY=0.5;entryDx=0;entryDy=0;endArrow=classic;endFill=1;" parent="77e6c97f196da883-3" source="D1fkWWdUB6Wvw9z3cZuo-426" target="D1fkWWdUB6Wvw9z3cZuo-226" edge="1">
          <mxGeometry relative="1" as="geometry"/>
        </mxCell>
        <mxCell id="D1fkWWdUB6Wvw9z3cZuo-426" value="" style="verticalLabelPosition=bottom;verticalAlign=top;html=1;strokeWidth=2;shape=mxgraph.flowchart.parallel_mode;pointerEvents=1" parent="77e6c97f196da883-3" vertex="1">
          <mxGeometry x="43" y="1191.5" width="95" height="40" as="geometry"/>
        </mxCell>
        <mxCell id="D1fkWWdUB6Wvw9z3cZuo-427" value="分布式设备锁" style="text;html=1;resizable=0;points=[];autosize=1;align=left;verticalAlign=top;spacingTop=-4;" parent="77e6c97f196da883-3" vertex="1">
          <mxGeometry x="48" y="1231.5" width="90" height="20" as="geometry"/>
        </mxCell>
        <mxCell id="D1fkWWdUB6Wvw9z3cZuo-440" value="更新设备信息&lt;br&gt;库存状态&lt;br&gt;等？" style="rounded=0;whiteSpace=wrap;html=1;strokeWidth=1;" parent="77e6c97f196da883-3" vertex="1">
          <mxGeometry x="53" y="2412" width="120" height="60" as="geometry"/>
        </mxCell>
        <mxCell id="D1fkWWdUB6Wvw9z3cZuo-401" value="若能与发货确认合并，则删除" style="text;html=1;resizable=0;points=[];autosize=1;align=left;verticalAlign=top;spacingTop=-4;fillColor=#f8cecc;strokeColor=#b85450;" parent="1" vertex="1">
          <mxGeometry x="2125" y="2075" width="170" height="20" as="geometry"/>
        </mxCell>
        <mxCell id="D1fkWWdUB6Wvw9z3cZuo-409" style="edgeStyle=orthogonalEdgeStyle;rounded=1;orthogonalLoop=1;jettySize=auto;html=1;endArrow=classic;endFill=1;" parent="1" source="D1fkWWdUB6Wvw9z3cZuo-404" edge="1">
          <mxGeometry relative="1" as="geometry">
            <mxPoint x="1500" y="2290" as="targetPoint"/>
          </mxGeometry>
        </mxCell>
        <mxCell id="D1fkWWdUB6Wvw9z3cZuo-404" value="保单&lt;br&gt;拆装设备" style="rounded=1;whiteSpace=wrap;html=1;shadow=0;labelBackgroundColor=none;strokeColor=#d79b00;strokeWidth=3;fillColor=#ffe6cc;fontFamily=Verdana;fontSize=8;align=center;" parent="1" vertex="1">
          <mxGeometry x="1105" y="2200" width="98" height="40" as="geometry"/>
        </mxCell>
        <mxCell id="D1fkWWdUB6Wvw9z3cZuo-405" value="工单&lt;br&gt;拆装设备" style="rounded=1;whiteSpace=wrap;html=1;shadow=0;labelBackgroundColor=none;strokeColor=#b85450;strokeWidth=3;fillColor=#f8cecc;fontFamily=Verdana;fontSize=8;align=center;" parent="1" vertex="1">
          <mxGeometry x="1104" y="2290" width="98" height="40" as="geometry"/>
        </mxCell>
        <mxCell id="D1fkWWdUB6Wvw9z3cZuo-417" value="保单&lt;br&gt;拆装设备&lt;br&gt;通知" style="rounded=1;whiteSpace=wrap;html=1;shadow=0;labelBackgroundColor=none;strokeColor=#d79b00;strokeWidth=3;fillColor=#ffe6cc;fontFamily=Verdana;fontSize=8;align=center;" parent="1" vertex="1">
          <mxGeometry x="1100" y="2390" width="98" height="40" as="geometry"/>
        </mxCell>
        <mxCell id="D1fkWWdUB6Wvw9z3cZuo-418" value="工单&lt;br&gt;拆装设备&lt;br&gt;通知" style="rounded=1;whiteSpace=wrap;html=1;shadow=0;labelBackgroundColor=none;strokeColor=#b85450;strokeWidth=3;fillColor=#f8cecc;fontFamily=Verdana;fontSize=8;align=center;" parent="1" vertex="1">
          <mxGeometry x="1101" y="2450" width="98" height="40" as="geometry"/>
        </mxCell>
        <mxCell id="D1fkWWdUB6Wvw9z3cZuo-410" style="edgeStyle=orthogonalEdgeStyle;rounded=1;orthogonalLoop=1;jettySize=auto;html=1;endArrow=classic;endFill=1;" parent="1" source="D1fkWWdUB6Wvw9z3cZuo-405" target="D1fkWWdUB6Wvw9z3cZuo-406" edge="1">
          <mxGeometry relative="1" as="geometry"/>
        </mxCell>
        <mxCell id="D1fkWWdUB6Wvw9z3cZuo-422" style="edgeStyle=orthogonalEdgeStyle;rounded=1;orthogonalLoop=1;jettySize=auto;html=1;endArrow=classic;endFill=1;" parent="1" source="D1fkWWdUB6Wvw9z3cZuo-412" edge="1">
          <mxGeometry relative="1" as="geometry">
            <mxPoint x="1200" y="2410" as="targetPoint"/>
            <Array as="points">
              <mxPoint x="1910" y="2410"/>
            </Array>
          </mxGeometry>
        </mxCell>
        <mxCell id="D1fkWWdUB6Wvw9z3cZuo-423" style="edgeStyle=orthogonalEdgeStyle;rounded=1;orthogonalLoop=1;jettySize=auto;html=1;endArrow=classic;endFill=1;entryX=1;entryY=0.5;entryDx=0;entryDy=0;" parent="1" target="D1fkWWdUB6Wvw9z3cZuo-419" edge="1">
          <mxGeometry relative="1" as="geometry">
            <mxPoint x="1210" y="2420.3333333333335" as="targetPoint"/>
            <mxPoint x="1910" y="2340" as="sourcePoint"/>
            <Array as="points">
              <mxPoint x="1910" y="2530"/>
            </Array>
          </mxGeometry>
        </mxCell>
        <mxCell id="D1fkWWdUB6Wvw9z3cZuo-424" style="edgeStyle=orthogonalEdgeStyle;rounded=1;orthogonalLoop=1;jettySize=auto;html=1;endArrow=classic;endFill=1;exitX=0.5;exitY=1;exitDx=0;exitDy=0;entryX=1;entryY=0.5;entryDx=0;entryDy=0;" parent="1" source="D1fkWWdUB6Wvw9z3cZuo-412" target="D1fkWWdUB6Wvw9z3cZuo-418" edge="1">
          <mxGeometry relative="1" as="geometry">
            <mxPoint x="1220" y="2430.3333333333335" as="targetPoint"/>
            <mxPoint x="1930" y="2360" as="sourcePoint"/>
            <Array as="points">
              <mxPoint x="1910" y="2470"/>
            </Array>
          </mxGeometry>
        </mxCell>
        <mxCell id="D1fkWWdUB6Wvw9z3cZuo-431" value="工单&lt;br&gt;平台拆除设备&lt;br&gt;同步" style="rounded=1;whiteSpace=wrap;html=1;shadow=0;labelBackgroundColor=none;strokeColor=#6c8ebf;strokeWidth=3;fillColor=#dae8fc;fontFamily=Verdana;fontSize=8;align=center;" parent="1" vertex="1">
          <mxGeometry x="1101" y="2570" width="98" height="40" as="geometry"/>
        </mxCell>
        <mxCell id="D1fkWWdUB6Wvw9z3cZuo-432" style="edgeStyle=orthogonalEdgeStyle;rounded=1;orthogonalLoop=1;jettySize=auto;html=1;endArrow=classic;endFill=1;entryX=1;entryY=0.5;entryDx=0;entryDy=0;exitX=0.5;exitY=1;exitDx=0;exitDy=0;" parent="1" source="D1fkWWdUB6Wvw9z3cZuo-412" target="D1fkWWdUB6Wvw9z3cZuo-431" edge="1">
          <mxGeometry relative="1" as="geometry">
            <mxPoint x="1359.166666666667" y="2540.3333333333335" as="targetPoint"/>
            <mxPoint x="1920" y="2350.3333333333335" as="sourcePoint"/>
            <Array as="points">
              <mxPoint x="1910" y="2590"/>
            </Array>
          </mxGeometry>
        </mxCell>
        <mxCell id="9OqRoaYShbifYLGB0QwJ-5" style="edgeStyle=orthogonalEdgeStyle;rounded=0;orthogonalLoop=1;jettySize=auto;html=1;fillColor=#6a00ff;strokeColor=#3700CC;strokeWidth=2;entryX=0.5;entryY=0;entryDx=0;entryDy=0;" parent="1" source="9OqRoaYShbifYLGB0QwJ-1" target="9OqRoaYShbifYLGB0QwJ-36" edge="1">
          <mxGeometry relative="1" as="geometry">
            <mxPoint x="94" y="-655.5" as="targetPoint"/>
            <Array as="points">
              <mxPoint x="-16" y="-782.5"/>
              <mxPoint x="282" y="-782.5"/>
            </Array>
          </mxGeometry>
        </mxCell>
        <mxCell id="9OqRoaYShbifYLGB0QwJ-1" value="&lt;font&gt;&lt;span style=&quot;font-size: 17px&quot;&gt;（通知队列）&lt;/span&gt;&lt;br&gt;&lt;div style=&quot;text-align: left&quot;&gt;&lt;span style=&quot;font-size: 17px&quot;&gt;TAG：&lt;i&gt;&lt;font color=&quot;#ff3333&quot;&gt;13000&lt;/font&gt;&lt;/i&gt;&lt;/span&gt;&lt;/div&gt;&lt;div style=&quot;text-align: left&quot;&gt;&lt;br&gt;&lt;/div&gt;&lt;/font&gt;" style="strokeWidth=2;html=1;shape=mxgraph.flowchart.direct_data;whiteSpace=wrap;align=center;fillColor=#d5e8d4;strokeColor=#82b366;" parent="1" vertex="1">
          <mxGeometry x="-146" y="-742" width="260" height="100" as="geometry"/>
        </mxCell>
        <mxCell id="9OqRoaYShbifYLGB0QwJ-15" style="edgeStyle=orthogonalEdgeStyle;rounded=0;orthogonalLoop=1;jettySize=auto;html=1;fillColor=#6a00ff;strokeColor=#3700CC;strokeWidth=2;" parent="1" source="9OqRoaYShbifYLGB0QwJ-3" target="9OqRoaYShbifYLGB0QwJ-14" edge="1">
          <mxGeometry relative="1" as="geometry"/>
        </mxCell>
        <mxCell id="9OqRoaYShbifYLGB0QwJ-3" value="平台调拨" style="rounded=1;whiteSpace=wrap;html=1;" parent="1" vertex="1">
          <mxGeometry x="-478.5" y="-810.5" width="120" height="60" as="geometry"/>
        </mxCell>
        <mxCell id="9OqRoaYShbifYLGB0QwJ-9" style="edgeStyle=orthogonalEdgeStyle;rounded=0;orthogonalLoop=1;jettySize=auto;html=1;exitX=0;exitY=0.5;exitDx=0;exitDy=0;entryX=0.5;entryY=0;entryDx=0;entryDy=0;fillColor=#6a00ff;strokeColor=#3700CC;strokeWidth=2;" parent="1" source="9OqRoaYShbifYLGB0QwJ-6" target="9OqRoaYShbifYLGB0QwJ-10" edge="1">
          <mxGeometry relative="1" as="geometry">
            <mxPoint x="254" y="-204.5" as="targetPoint"/>
          </mxGeometry>
        </mxCell>
        <mxCell id="WbZyfgGSFHivBz08xxK0-1" style="edgeStyle=orthogonalEdgeStyle;rounded=0;orthogonalLoop=1;jettySize=auto;html=1;entryX=1;entryY=0.5;entryDx=0;entryDy=0;strokeColor=#000000;strokeWidth=1;" edge="1" parent="1" source="9OqRoaYShbifYLGB0QwJ-6" target="9OqRoaYShbifYLGB0QwJ-10">
          <mxGeometry relative="1" as="geometry"/>
        </mxCell>
        <mxCell id="9OqRoaYShbifYLGB0QwJ-6" value="ERP调拨逻辑" style="rounded=0;whiteSpace=wrap;html=1;align=left;strokeWidth=3;" parent="1" vertex="1">
          <mxGeometry x="480" y="-648.5" width="123" height="40" as="geometry"/>
        </mxCell>
        <mxCell id="9OqRoaYShbifYLGB0QwJ-43" style="edgeStyle=orthogonalEdgeStyle;rounded=0;orthogonalLoop=1;jettySize=auto;html=1;entryX=0.5;entryY=0;entryDx=0;entryDy=0;fillColor=#6a00ff;strokeColor=#3700CC;strokeWidth=2;" parent="1" source="9OqRoaYShbifYLGB0QwJ-10" target="9OqRoaYShbifYLGB0QwJ-40" edge="1">
          <mxGeometry relative="1" as="geometry"/>
        </mxCell>
        <mxCell id="WbZyfgGSFHivBz08xxK0-20" style="edgeStyle=orthogonalEdgeStyle;rounded=0;orthogonalLoop=1;jettySize=auto;html=1;strokeColor=#000000;strokeWidth=1;" edge="1" parent="1" source="9OqRoaYShbifYLGB0QwJ-10" target="WbZyfgGSFHivBz08xxK0-5">
          <mxGeometry relative="1" as="geometry">
            <Array as="points">
              <mxPoint x="478" y="-400"/>
              <mxPoint x="478" y="-400"/>
            </Array>
          </mxGeometry>
        </mxCell>
        <mxCell id="9OqRoaYShbifYLGB0QwJ-10" value="erp调拨逻辑执行完毕&lt;br&gt;建议事务提交" style="rounded=0;whiteSpace=wrap;html=1;strokeWidth=3;" parent="1" vertex="1">
          <mxGeometry x="384" y="-567.5" width="120" height="53" as="geometry"/>
        </mxCell>
        <mxCell id="9OqRoaYShbifYLGB0QwJ-19" style="edgeStyle=orthogonalEdgeStyle;rounded=0;orthogonalLoop=1;jettySize=auto;html=1;fillColor=#6a00ff;strokeColor=#3700CC;strokeWidth=2;" parent="1" source="9OqRoaYShbifYLGB0QwJ-11" target="9OqRoaYShbifYLGB0QwJ-20" edge="1">
          <mxGeometry relative="1" as="geometry">
            <mxPoint x="-426" y="-445.5" as="targetPoint"/>
          </mxGeometry>
        </mxCell>
        <mxCell id="9OqRoaYShbifYLGB0QwJ-11" value="&lt;font&gt;&lt;span style=&quot;font-size: 17px&quot;&gt;（回调队列）&lt;br&gt;&lt;/span&gt;&lt;span style=&quot;font-family: &amp;#34;helvetica&amp;#34; , &amp;#34;arial&amp;#34; , sans-serif ; font-size: 0px ; white-space: nowrap&quot;&gt;%3CmxGraphModel%3E%3Croot%3E%3CmxCell%20id%3D%220%22%2F%3E%3CmxCell%20id%3D%221%22%20parent%3D%220%22%2F%3E%3CmxCell%20id%3D%222%22%20value%3D%22end%22%20style%3D%22rounded%3D1%3BwhiteSpace%3Dwrap%3Bhtml%3D1%3B%22%20vertex%3D%221%22%20parent%3D%221%22%3E%3CmxGeometry%20x%3D%22-997.5%22%20y%3D%22-570%22%20width%3D%2250%22%20height%3D%2225%22%20as%3D%22geometry%22%2F%3E%3C%2FmxCell%3E%3C%2Froot%3E%3C%2FmxGraphModel%3&lt;/span&gt;&lt;span style=&quot;font-size: 17px ; text-align: left&quot;&gt;TAG：&lt;/span&gt;&lt;i style=&quot;font-size: 17px ; text-align: left&quot;&gt;&lt;font color=&quot;#ff3333&quot;&gt;13000&lt;/font&gt;&lt;/i&gt;&lt;span style=&quot;font-family: &amp;#34;helvetica&amp;#34; , &amp;#34;arial&amp;#34; , sans-serif ; font-size: 0px ; white-space: nowrap&quot;&gt;%3CmxGraphModel%3E%3Croot%3E%3CmxCell%20id%3D%220%22%2F%3E%3CmxCell%20id%3D%221%22%20parent%3D%220%22%2F%3E%3CmxCell%20id%3D%222%22%20value%3D%22end%22%20style%3D%22rounded%3D1%3BwhiteSpace%3Dwrap%3Bhtml%3D1%3B%22%20vertex%3D%221%22%20parent%3D%221%22%3E%3CmxGeometry%20x%3D%22-997.5%22%20y%3D%22-570%22%20width%3D%2250%22%20height%3D%2225%22%20as%3D%22geometry%22%2F%3E%3C%2FmxCell%3E%3C%2Froot%3E%3C%2FmxGraphModel%3E&lt;/span&gt;&lt;span style=&quot;font-family: &amp;#34;helvetica&amp;#34; , &amp;#34;arial&amp;#34; , sans-serif ; font-size: 0px ; white-space: nowrap&quot;&gt;%3CmxGraphModel%3E%3Croot%3E%3CmxCell%20id%3D%220%22%2F%3E%3CmxCell%20id%3D%221%22%20parent%3D%220%22%2F%3E%3CmxCell%20id%3D%222%22%20value%3D%22end%22%20style%3D%22rounded%3D1%3BwhiteSpace%3Dwrap%3Bhtml%3D1%3B%22%20vertex%3D%221%22%20parent%3D%221%22%3E%3CmxGeometry%20x%3D%22-997.5%22%20y%3D%22-570%22%20width%3D%2250%22%20height%3D%2225%22%20as%3D%22geometry%22%2F%3E%3C%2FmxCell%3E%3C%2Froot%3E%3C%2FmxGraphModel%3E&lt;/span&gt;&lt;span style=&quot;font-size: 17px&quot;&gt;&lt;br&gt;&lt;/span&gt;&lt;/font&gt;" style="strokeWidth=2;html=1;shape=mxgraph.flowchart.direct_data;whiteSpace=wrap;align=center;fillColor=#dae8fc;strokeColor=#6c8ebf;" parent="1" vertex="1">
          <mxGeometry x="-126" y="-540.5" width="170" height="50" as="geometry"/>
        </mxCell>
        <mxCell id="9OqRoaYShbifYLGB0QwJ-18" style="edgeStyle=orthogonalEdgeStyle;rounded=0;orthogonalLoop=1;jettySize=auto;html=1;strokeWidth=2;fillColor=#6a00ff;strokeColor=#3700CC;" parent="1" source="9OqRoaYShbifYLGB0QwJ-14" target="9OqRoaYShbifYLGB0QwJ-1" edge="1">
          <mxGeometry relative="1" as="geometry"/>
        </mxCell>
        <mxCell id="9OqRoaYShbifYLGB0QwJ-14" value="新建生产者履历" style="rounded=0;whiteSpace=wrap;html=1;" parent="1" vertex="1">
          <mxGeometry x="-486" y="-673.5" width="135" height="35" as="geometry"/>
        </mxCell>
        <mxCell id="9OqRoaYShbifYLGB0QwJ-56" style="edgeStyle=orthogonalEdgeStyle;rounded=0;orthogonalLoop=1;jettySize=auto;html=1;entryX=0.5;entryY=1;entryDx=0;entryDy=0;strokeWidth=1;" parent="1" source="9OqRoaYShbifYLGB0QwJ-20" target="9OqRoaYShbifYLGB0QwJ-51" edge="1">
          <mxGeometry relative="1" as="geometry"/>
        </mxCell>
        <mxCell id="9OqRoaYShbifYLGB0QwJ-20" value="更新生产者履历" style="rounded=0;whiteSpace=wrap;html=1;" parent="1" vertex="1">
          <mxGeometry x="-486" y="-530.5" width="140" height="30" as="geometry"/>
        </mxCell>
        <mxCell id="9OqRoaYShbifYLGB0QwJ-23" style="edgeStyle=orthogonalEdgeStyle;rounded=0;orthogonalLoop=1;jettySize=auto;html=1;exitX=0;exitY=0.5;exitDx=0;exitDy=0;fillColor=#6a00ff;strokeColor=#3700CC;" parent="1" source="9OqRoaYShbifYLGB0QwJ-30" target="9OqRoaYShbifYLGB0QwJ-24" edge="1">
          <mxGeometry relative="1" as="geometry">
            <mxPoint x="184" y="-325.5" as="targetPoint"/>
            <mxPoint x="384" y="-325.5" as="sourcePoint"/>
          </mxGeometry>
        </mxCell>
        <mxCell id="9OqRoaYShbifYLGB0QwJ-29" style="edgeStyle=orthogonalEdgeStyle;rounded=0;orthogonalLoop=1;jettySize=auto;html=1;entryX=1;entryY=0.5;entryDx=0;entryDy=0;entryPerimeter=0;fillColor=#6a00ff;strokeColor=#3700CC;" parent="1" source="9OqRoaYShbifYLGB0QwJ-24" target="9OqRoaYShbifYLGB0QwJ-63" edge="1">
          <mxGeometry relative="1" as="geometry">
            <mxPoint x="-348.5" y="-325.5" as="targetPoint"/>
          </mxGeometry>
        </mxCell>
        <mxCell id="9OqRoaYShbifYLGB0QwJ-24" value="&lt;font&gt;&lt;span style=&quot;font-size: 17px&quot;&gt;（通知队列）&lt;/span&gt;&lt;br&gt;&lt;div style=&quot;text-align: left&quot;&gt;&lt;span style=&quot;font-size: 17px&quot;&gt;TAG：&lt;/span&gt;&lt;i style=&quot;font-size: 17px&quot;&gt;&lt;font color=&quot;#ff3333&quot;&gt;43001&lt;/font&gt;&lt;/i&gt;&lt;span style=&quot;font-size: 17px&quot;&gt;&lt;br&gt;&lt;/span&gt;&lt;/div&gt;&lt;div style=&quot;text-align: left&quot;&gt;&lt;br&gt;&lt;/div&gt;&lt;br&gt;&lt;/font&gt;" style="strokeWidth=2;html=1;shape=mxgraph.flowchart.direct_data;whiteSpace=wrap;align=center;fillColor=#d5e8d4;strokeColor=#82b366;" parent="1" vertex="1">
          <mxGeometry x="-161" y="-393.5" width="260" height="100" as="geometry"/>
        </mxCell>
        <mxCell id="MO7SUTFCpSmHmxjMydiH-165" style="edgeStyle=orthogonalEdgeStyle;rounded=0;orthogonalLoop=1;jettySize=auto;html=1;entryX=1;entryY=0.5;entryDx=0;entryDy=0;strokeWidth=1;exitX=1;exitY=0.5;exitDx=0;exitDy=0;" parent="1" source="9OqRoaYShbifYLGB0QwJ-28" target="9OqRoaYShbifYLGB0QwJ-6" edge="1">
          <mxGeometry relative="1" as="geometry"/>
        </mxCell>
        <mxCell id="9OqRoaYShbifYLGB0QwJ-28" value="预查询&lt;br&gt;&lt;span style=&quot;white-space: normal&quot;&gt;（通知平台调拨）&lt;/span&gt;" style="shape=process;whiteSpace=wrap;html=1;backgroundOutline=1;" parent="1" vertex="1">
          <mxGeometry x="575" y="-802" width="139" height="60" as="geometry"/>
        </mxCell>
        <mxCell id="9OqRoaYShbifYLGB0QwJ-30" value="新建生产者履历" style="rounded=0;whiteSpace=wrap;html=1;" parent="1" vertex="1">
          <mxGeometry x="230" y="-361" width="135" height="35" as="geometry"/>
        </mxCell>
        <mxCell id="9OqRoaYShbifYLGB0QwJ-33" style="edgeStyle=orthogonalEdgeStyle;rounded=0;orthogonalLoop=1;jettySize=auto;html=1;" parent="1" source="9OqRoaYShbifYLGB0QwJ-31" target="9OqRoaYShbifYLGB0QwJ-32" edge="1">
          <mxGeometry relative="1" as="geometry"/>
        </mxCell>
        <mxCell id="9OqRoaYShbifYLGB0QwJ-31" value="平台2调拨逻辑&lt;br&gt;事务提交" style="rounded=0;whiteSpace=wrap;html=1;" parent="1" vertex="1">
          <mxGeometry x="-483" y="-315.5" width="130" height="47" as="geometry"/>
        </mxCell>
        <mxCell id="9OqRoaYShbifYLGB0QwJ-35" style="edgeStyle=orthogonalEdgeStyle;rounded=0;orthogonalLoop=1;jettySize=auto;html=1;entryX=0;entryY=0.5;entryDx=0;entryDy=0;entryPerimeter=0;" parent="1" source="9OqRoaYShbifYLGB0QwJ-32" target="9OqRoaYShbifYLGB0QwJ-34" edge="1">
          <mxGeometry relative="1" as="geometry"/>
        </mxCell>
        <mxCell id="9OqRoaYShbifYLGB0QwJ-32" value="更新消费者履历" style="rounded=0;whiteSpace=wrap;html=1;" parent="1" vertex="1">
          <mxGeometry x="-488" y="-225.5" width="140" height="30" as="geometry"/>
        </mxCell>
        <mxCell id="9OqRoaYShbifYLGB0QwJ-48" style="edgeStyle=orthogonalEdgeStyle;rounded=0;orthogonalLoop=1;jettySize=auto;html=1;strokeWidth=1;entryX=0;entryY=0.5;entryDx=0;entryDy=0;" parent="1" source="9OqRoaYShbifYLGB0QwJ-34" target="9OqRoaYShbifYLGB0QwJ-49" edge="1">
          <mxGeometry relative="1" as="geometry">
            <mxPoint x="384" y="-210.5" as="targetPoint"/>
          </mxGeometry>
        </mxCell>
        <mxCell id="9OqRoaYShbifYLGB0QwJ-34" value="&lt;font&gt;&lt;span style=&quot;font-size: 17px&quot;&gt;（回调队列）&lt;br&gt;&lt;/span&gt;&lt;span style=&quot;font-size: 17px ; text-align: left&quot;&gt;TAG：&lt;/span&gt;&lt;i style=&quot;font-size: 17px ; text-align: left&quot;&gt;&lt;font color=&quot;#ff3333&quot;&gt;43001&lt;/font&gt;&lt;/i&gt;&lt;span style=&quot;font-size: 17px&quot;&gt;&lt;br&gt;&lt;/span&gt;&lt;/font&gt;" style="strokeWidth=2;html=1;shape=mxgraph.flowchart.direct_data;whiteSpace=wrap;align=center;fillColor=#dae8fc;strokeColor=#6c8ebf;" parent="1" vertex="1">
          <mxGeometry x="-116" y="-235.5" width="170" height="50" as="geometry"/>
        </mxCell>
        <mxCell id="9OqRoaYShbifYLGB0QwJ-37" style="edgeStyle=orthogonalEdgeStyle;rounded=0;orthogonalLoop=1;jettySize=auto;html=1;strokeColor=#3700CC;strokeWidth=2;fillColor=#6a00ff;" parent="1" source="9OqRoaYShbifYLGB0QwJ-36" target="9OqRoaYShbifYLGB0QwJ-6" edge="1">
          <mxGeometry relative="1" as="geometry"/>
        </mxCell>
        <mxCell id="9OqRoaYShbifYLGB0QwJ-36" value="新建消费者履历" style="rounded=0;whiteSpace=wrap;html=1;" parent="1" vertex="1">
          <mxGeometry x="214" y="-710.5" width="135" height="35" as="geometry"/>
        </mxCell>
        <mxCell id="9OqRoaYShbifYLGB0QwJ-45" style="edgeStyle=orthogonalEdgeStyle;rounded=0;orthogonalLoop=1;jettySize=auto;html=1;entryX=1;entryY=0.5;entryDx=0;entryDy=0;entryPerimeter=0;exitX=0.363;exitY=1;exitDx=0;exitDy=0;exitPerimeter=0;fillColor=#6a00ff;strokeColor=#3700CC;strokeWidth=2;" parent="1" source="9OqRoaYShbifYLGB0QwJ-40" target="9OqRoaYShbifYLGB0QwJ-11" edge="1">
          <mxGeometry relative="1" as="geometry"/>
        </mxCell>
        <mxCell id="9OqRoaYShbifYLGB0QwJ-78" style="edgeStyle=orthogonalEdgeStyle;rounded=0;orthogonalLoop=1;jettySize=auto;html=1;strokeWidth=2;exitX=0.5;exitY=1;exitDx=0;exitDy=0;fillColor=#6a00ff;strokeColor=#3700CC;" parent="1" source="9OqRoaYShbifYLGB0QwJ-10" target="9OqRoaYShbifYLGB0QwJ-30" edge="1">
          <mxGeometry relative="1" as="geometry">
            <mxPoint x="284" y="-445.5" as="sourcePoint"/>
            <Array as="points">
              <mxPoint x="444" y="-475.5"/>
              <mxPoint x="444" y="-475.5"/>
            </Array>
          </mxGeometry>
        </mxCell>
        <mxCell id="9OqRoaYShbifYLGB0QwJ-40" value="更新消费者履历" style="rounded=0;whiteSpace=wrap;html=1;" parent="1" vertex="1">
          <mxGeometry x="204" y="-483" width="135" height="35" as="geometry"/>
        </mxCell>
        <mxCell id="9OqRoaYShbifYLGB0QwJ-47" style="edgeStyle=orthogonalEdgeStyle;rounded=0;orthogonalLoop=1;jettySize=auto;html=1;strokeWidth=1;" parent="1" source="9OqRoaYShbifYLGB0QwJ-46" target="9OqRoaYShbifYLGB0QwJ-31" edge="1">
          <mxGeometry relative="1" as="geometry"/>
        </mxCell>
        <mxCell id="9OqRoaYShbifYLGB0QwJ-46" value="新建消费者履历" style="rounded=0;whiteSpace=wrap;html=1;" parent="1" vertex="1">
          <mxGeometry x="-485.5" y="-385.5" width="135" height="35" as="geometry"/>
        </mxCell>
        <mxCell id="9OqRoaYShbifYLGB0QwJ-53" style="edgeStyle=orthogonalEdgeStyle;rounded=0;orthogonalLoop=1;jettySize=auto;html=1;strokeWidth=1;entryX=0.5;entryY=1;entryDx=0;entryDy=0;" parent="1" source="9OqRoaYShbifYLGB0QwJ-49" target="9OqRoaYShbifYLGB0QwJ-52" edge="1">
          <mxGeometry relative="1" as="geometry">
            <mxPoint x="288" y="-247.5" as="targetPoint"/>
          </mxGeometry>
        </mxCell>
        <mxCell id="9OqRoaYShbifYLGB0QwJ-49" value="新建生产者履历" style="rounded=0;whiteSpace=wrap;html=1;" parent="1" vertex="1">
          <mxGeometry x="220" y="-227.5" width="135" height="35" as="geometry"/>
        </mxCell>
        <mxCell id="9OqRoaYShbifYLGB0QwJ-51" value="end" style="rounded=1;whiteSpace=wrap;html=1;" parent="1" vertex="1">
          <mxGeometry x="-441.5" y="-580.5" width="50" height="25" as="geometry"/>
        </mxCell>
        <mxCell id="9OqRoaYShbifYLGB0QwJ-52" value="end" style="rounded=1;whiteSpace=wrap;html=1;" parent="1" vertex="1">
          <mxGeometry x="262.5" y="-274.5" width="50" height="25" as="geometry"/>
        </mxCell>
        <mxCell id="9OqRoaYShbifYLGB0QwJ-74" style="edgeStyle=orthogonalEdgeStyle;rounded=0;orthogonalLoop=1;jettySize=auto;html=1;entryX=0.5;entryY=0;entryDx=0;entryDy=0;strokeWidth=1;" parent="1" source="9OqRoaYShbifYLGB0QwJ-58" target="9OqRoaYShbifYLGB0QwJ-28" edge="1">
          <mxGeometry relative="1" as="geometry"/>
        </mxCell>
        <mxCell id="9OqRoaYShbifYLGB0QwJ-58" value="erp调拨调拨" style="rounded=1;whiteSpace=wrap;html=1;" parent="1" vertex="1">
          <mxGeometry x="585" y="-897" width="120" height="60" as="geometry"/>
        </mxCell>
        <mxCell id="9OqRoaYShbifYLGB0QwJ-65" style="edgeStyle=orthogonalEdgeStyle;rounded=0;orthogonalLoop=1;jettySize=auto;html=1;entryX=0;entryY=0.5;entryDx=0;entryDy=0;strokeWidth=1;" parent="1" source="9OqRoaYShbifYLGB0QwJ-63" target="9OqRoaYShbifYLGB0QwJ-46" edge="1">
          <mxGeometry relative="1" as="geometry">
            <Array as="points">
              <mxPoint x="-505" y="-435.5"/>
              <mxPoint x="-505" y="-367.5"/>
            </Array>
          </mxGeometry>
        </mxCell>
        <mxCell id="9OqRoaYShbifYLGB0QwJ-63" value="" style="verticalLabelPosition=bottom;verticalAlign=top;html=1;strokeWidth=2;shape=mxgraph.flowchart.parallel_mode;pointerEvents=1" parent="1" vertex="1">
          <mxGeometry x="-463.5" y="-455.5" width="95" height="40" as="geometry"/>
        </mxCell>
        <mxCell id="9OqRoaYShbifYLGB0QwJ-64" value="分布式设备锁" style="text;html=1;resizable=0;points=[];autosize=1;align=left;verticalAlign=top;spacingTop=-4;" parent="1" vertex="1">
          <mxGeometry x="-458.5" y="-415.5" width="90" height="20" as="geometry"/>
        </mxCell>
        <mxCell id="9OqRoaYShbifYLGB0QwJ-68" style="edgeStyle=orthogonalEdgeStyle;rounded=0;orthogonalLoop=1;jettySize=auto;html=1;entryX=0.5;entryY=0;entryDx=0;entryDy=0;strokeWidth=1;" parent="1" source="9OqRoaYShbifYLGB0QwJ-66" target="9OqRoaYShbifYLGB0QwJ-70" edge="1">
          <mxGeometry relative="1" as="geometry"/>
        </mxCell>
        <mxCell id="9OqRoaYShbifYLGB0QwJ-66" value="erp导入设备" style="rounded=1;whiteSpace=wrap;html=1;" parent="1" vertex="1">
          <mxGeometry x="-1993" y="-40" width="120" height="60" as="geometry"/>
        </mxCell>
        <mxCell id="9OqRoaYShbifYLGB0QwJ-72" style="edgeStyle=orthogonalEdgeStyle;rounded=0;orthogonalLoop=1;jettySize=auto;html=1;entryX=0;entryY=0.5;entryDx=0;entryDy=0;strokeWidth=1;" parent="1" source="9OqRoaYShbifYLGB0QwJ-67" target="9OqRoaYShbifYLGB0QwJ-69" edge="1">
          <mxGeometry relative="1" as="geometry"/>
        </mxCell>
        <mxCell id="9OqRoaYShbifYLGB0QwJ-67" value="&lt;font&gt;&lt;span style=&quot;font-size: 17px&quot;&gt;（通知队列）&lt;/span&gt;&lt;br&gt;&lt;div style=&quot;text-align: left&quot;&gt;&lt;span style=&quot;font-size: 17px&quot;&gt;TAG：&lt;i&gt;&lt;font color=&quot;#ff3333&quot;&gt;42000&lt;/font&gt;&lt;/i&gt;&lt;/span&gt;&lt;/div&gt;&lt;div style=&quot;text-align: left&quot;&gt;&lt;br&gt;&lt;/div&gt;&lt;/font&gt;" style="strokeWidth=2;html=1;shape=mxgraph.flowchart.direct_data;whiteSpace=wrap;align=center;fillColor=#d5e8d4;strokeColor=#82b366;" parent="1" vertex="1">
          <mxGeometry x="-1656" y="7.5" width="260" height="100" as="geometry"/>
        </mxCell>
        <mxCell id="MO7SUTFCpSmHmxjMydiH-1" style="edgeStyle=orthogonalEdgeStyle;rounded=0;orthogonalLoop=1;jettySize=auto;html=1;entryX=0.5;entryY=0;entryDx=0;entryDy=0;" parent="1" source="9OqRoaYShbifYLGB0QwJ-69" target="MO7SUTFCpSmHmxjMydiH-2" edge="1">
          <mxGeometry relative="1" as="geometry">
            <mxPoint x="-1119" y="110" as="targetPoint"/>
          </mxGeometry>
        </mxCell>
        <mxCell id="9OqRoaYShbifYLGB0QwJ-69" value="新建消费者履历" style="rounded=0;whiteSpace=wrap;html=1;" parent="1" vertex="1">
          <mxGeometry x="-1186.5" y="40" width="135" height="35" as="geometry"/>
        </mxCell>
        <mxCell id="9OqRoaYShbifYLGB0QwJ-71" style="edgeStyle=orthogonalEdgeStyle;rounded=0;orthogonalLoop=1;jettySize=auto;html=1;strokeWidth=1;" parent="1" source="9OqRoaYShbifYLGB0QwJ-70" target="9OqRoaYShbifYLGB0QwJ-67" edge="1">
          <mxGeometry relative="1" as="geometry"/>
        </mxCell>
        <mxCell id="9OqRoaYShbifYLGB0QwJ-70" value="新建生产者履历" style="rounded=0;whiteSpace=wrap;html=1;" parent="1" vertex="1">
          <mxGeometry x="-2000.5" y="40" width="135" height="35" as="geometry"/>
        </mxCell>
        <mxCell id="MO7SUTFCpSmHmxjMydiH-7" style="edgeStyle=orthogonalEdgeStyle;rounded=0;orthogonalLoop=1;jettySize=auto;html=1;entryX=1;entryY=0.5;entryDx=0;entryDy=0;" parent="1" source="9OqRoaYShbifYLGB0QwJ-73" target="MO7SUTFCpSmHmxjMydiH-8" edge="1">
          <mxGeometry relative="1" as="geometry">
            <mxPoint x="-1856" y="172.5" as="targetPoint"/>
          </mxGeometry>
        </mxCell>
        <mxCell id="9OqRoaYShbifYLGB0QwJ-73" value="&lt;font&gt;&lt;span style=&quot;font-size: 17px&quot;&gt;（回调队列）&lt;br&gt;&lt;/span&gt;&lt;span style=&quot;font-size: 17px ; text-align: left&quot;&gt;TAG：&lt;/span&gt;&lt;i style=&quot;font-size: 17px ; text-align: left&quot;&gt;&lt;font color=&quot;#ff3333&quot;&gt;42000&lt;/font&gt;&lt;/i&gt;&lt;span style=&quot;font-size: 17px&quot;&gt;&lt;br&gt;&lt;/span&gt;&lt;/font&gt;" style="strokeWidth=2;html=1;shape=mxgraph.flowchart.direct_data;whiteSpace=wrap;align=center;fillColor=#dae8fc;strokeColor=#6c8ebf;" parent="1" vertex="1">
          <mxGeometry x="-1626" y="147.5" width="170" height="50" as="geometry"/>
        </mxCell>
        <mxCell id="MO7SUTFCpSmHmxjMydiH-5" value="" style="edgeStyle=orthogonalEdgeStyle;rounded=0;orthogonalLoop=1;jettySize=auto;html=1;" parent="1" source="MO7SUTFCpSmHmxjMydiH-2" target="MO7SUTFCpSmHmxjMydiH-4" edge="1">
          <mxGeometry relative="1" as="geometry"/>
        </mxCell>
        <mxCell id="MO7SUTFCpSmHmxjMydiH-2" value="导入逻辑" style="rounded=0;whiteSpace=wrap;html=1;" parent="1" vertex="1">
          <mxGeometry x="-1186.5" y="100" width="135" height="35" as="geometry"/>
        </mxCell>
        <mxCell id="MO7SUTFCpSmHmxjMydiH-6" style="edgeStyle=orthogonalEdgeStyle;rounded=0;orthogonalLoop=1;jettySize=auto;html=1;" parent="1" source="MO7SUTFCpSmHmxjMydiH-4" target="9OqRoaYShbifYLGB0QwJ-73" edge="1">
          <mxGeometry relative="1" as="geometry"/>
        </mxCell>
        <mxCell id="MO7SUTFCpSmHmxjMydiH-4" value="更新消费者履历" style="rounded=0;whiteSpace=wrap;html=1;" parent="1" vertex="1">
          <mxGeometry x="-1186.5" y="155" width="135" height="35" as="geometry"/>
        </mxCell>
        <mxCell id="MO7SUTFCpSmHmxjMydiH-10" style="edgeStyle=orthogonalEdgeStyle;rounded=0;orthogonalLoop=1;jettySize=auto;html=1;entryX=0.5;entryY=1;entryDx=0;entryDy=0;" parent="1" source="MO7SUTFCpSmHmxjMydiH-8" target="MO7SUTFCpSmHmxjMydiH-9" edge="1">
          <mxGeometry relative="1" as="geometry"/>
        </mxCell>
        <mxCell id="MO7SUTFCpSmHmxjMydiH-8" value="更新生产者履历" style="rounded=0;whiteSpace=wrap;html=1;" parent="1" vertex="1">
          <mxGeometry x="-2000.5" y="155" width="135" height="35" as="geometry"/>
        </mxCell>
        <mxCell id="MO7SUTFCpSmHmxjMydiH-9" value="end" style="rounded=1;whiteSpace=wrap;html=1;" parent="1" vertex="1">
          <mxGeometry x="-1958" y="107.5" width="50" height="25" as="geometry"/>
        </mxCell>
        <mxCell id="MO7SUTFCpSmHmxjMydiH-11" value="PT2" style="shape=cube;whiteSpace=wrap;html=1;boundedLbl=1;backgroundOutline=1;darkOpacity=0.05;darkOpacity2=0.1;" parent="1" vertex="1">
          <mxGeometry x="-1320" y="-80" width="370" height="40" as="geometry"/>
        </mxCell>
        <mxCell id="MO7SUTFCpSmHmxjMydiH-12" value="ERP" style="shape=cube;whiteSpace=wrap;html=1;boundedLbl=1;backgroundOutline=1;darkOpacity=0.05;darkOpacity2=0.1;" parent="1" vertex="1">
          <mxGeometry x="-2046" y="-80" width="370" height="40" as="geometry"/>
        </mxCell>
        <mxCell id="MO7SUTFCpSmHmxjMydiH-13" value="ERP-40000" style="shape=cube;whiteSpace=wrap;html=1;boundedLbl=1;backgroundOutline=1;darkOpacity=0.05;darkOpacity2=0.1;" parent="1" vertex="1">
          <mxGeometry x="190" y="-936" width="564" height="36" as="geometry"/>
        </mxCell>
        <mxCell id="MO7SUTFCpSmHmxjMydiH-14" value="PT2-10000" style="shape=cube;whiteSpace=wrap;html=1;boundedLbl=1;backgroundOutline=1;darkOpacity=0.05;darkOpacity2=0.1;" parent="1" vertex="1">
          <mxGeometry x="-550" y="-931" width="370" height="40" as="geometry"/>
        </mxCell>
        <mxCell id="MO7SUTFCpSmHmxjMydiH-45" style="edgeStyle=orthogonalEdgeStyle;rounded=0;orthogonalLoop=1;jettySize=auto;html=1;" parent="1" source="MO7SUTFCpSmHmxjMydiH-18" target="MO7SUTFCpSmHmxjMydiH-40" edge="1">
          <mxGeometry relative="1" as="geometry"/>
        </mxCell>
        <mxCell id="MO7SUTFCpSmHmxjMydiH-18" value="&lt;font&gt;&lt;span style=&quot;font-size: 17px&quot;&gt;（通知队列）&lt;/span&gt;&lt;br&gt;&lt;div style=&quot;text-align: left&quot;&gt;&lt;span style=&quot;font-size: 17px&quot;&gt;TAG：&lt;i&gt;&lt;font color=&quot;#ff3333&quot;&gt;21000/31000&lt;/font&gt;&lt;/i&gt;&lt;/span&gt;&lt;/div&gt;&lt;div style=&quot;text-align: left&quot;&gt;&lt;br&gt;&lt;/div&gt;&lt;/font&gt;" style="strokeWidth=2;html=1;shape=mxgraph.flowchart.direct_data;whiteSpace=wrap;align=center;fillColor=#d5e8d4;strokeColor=#82b366;" parent="1" vertex="1">
          <mxGeometry x="-510.5" y="578" width="260" height="100" as="geometry"/>
        </mxCell>
        <mxCell id="MO7SUTFCpSmHmxjMydiH-19" style="edgeStyle=orthogonalEdgeStyle;rounded=0;orthogonalLoop=1;jettySize=auto;html=1;entryX=0.5;entryY=0;entryDx=0;entryDy=0;" parent="1" source="MO7SUTFCpSmHmxjMydiH-20" target="MO7SUTFCpSmHmxjMydiH-26" edge="1">
          <mxGeometry relative="1" as="geometry">
            <mxPoint x="-378" y="1095.5" as="targetPoint"/>
          </mxGeometry>
        </mxCell>
        <mxCell id="MO7SUTFCpSmHmxjMydiH-20" value="新建消费者履历" style="rounded=0;whiteSpace=wrap;html=1;" parent="1" vertex="1">
          <mxGeometry x="-447.5" y="1008" width="135" height="35" as="geometry"/>
        </mxCell>
        <mxCell id="MO7SUTFCpSmHmxjMydiH-110" style="edgeStyle=orthogonalEdgeStyle;rounded=0;orthogonalLoop=1;jettySize=auto;html=1;entryX=0.5;entryY=1;entryDx=0;entryDy=0;" parent="1" source="MO7SUTFCpSmHmxjMydiH-24" target="MO7SUTFCpSmHmxjMydiH-30" edge="1">
          <mxGeometry relative="1" as="geometry"/>
        </mxCell>
        <mxCell id="MO7SUTFCpSmHmxjMydiH-24" value="&lt;font&gt;&lt;span style=&quot;font-size: 17px&quot;&gt;（回调队列）&lt;br&gt;&lt;/span&gt;&lt;span style=&quot;font-size: 17px ; text-align: left&quot;&gt;TAG：&lt;/span&gt;&lt;i style=&quot;font-size: 17px ; text-align: left&quot;&gt;&lt;font color=&quot;#ff3333&quot;&gt;31000&lt;/font&gt;&lt;/i&gt;&lt;span style=&quot;font-size: 17px&quot;&gt;&lt;br&gt;&lt;/span&gt;&lt;/font&gt;" style="strokeWidth=2;html=1;shape=mxgraph.flowchart.direct_data;whiteSpace=wrap;align=center;fillColor=#dae8fc;strokeColor=#6c8ebf;" parent="1" vertex="1">
          <mxGeometry x="-879.5" y="1155.5" width="170" height="50" as="geometry"/>
        </mxCell>
        <mxCell id="MO7SUTFCpSmHmxjMydiH-25" value="" style="edgeStyle=orthogonalEdgeStyle;rounded=0;orthogonalLoop=1;jettySize=auto;html=1;" parent="1" source="MO7SUTFCpSmHmxjMydiH-26" target="MO7SUTFCpSmHmxjMydiH-28" edge="1">
          <mxGeometry relative="1" as="geometry"/>
        </mxCell>
        <mxCell id="MO7SUTFCpSmHmxjMydiH-26" value="导入逻辑" style="rounded=0;whiteSpace=wrap;html=1;" parent="1" vertex="1">
          <mxGeometry x="-447.5" y="1085.5" width="135" height="35" as="geometry"/>
        </mxCell>
        <mxCell id="MO7SUTFCpSmHmxjMydiH-53" style="edgeStyle=orthogonalEdgeStyle;rounded=0;orthogonalLoop=1;jettySize=auto;html=1;" parent="1" source="MO7SUTFCpSmHmxjMydiH-28" target="MO7SUTFCpSmHmxjMydiH-51" edge="1">
          <mxGeometry relative="1" as="geometry"/>
        </mxCell>
        <mxCell id="MO7SUTFCpSmHmxjMydiH-57" value="http" style="text;html=1;resizable=0;points=[];align=center;verticalAlign=middle;labelBackgroundColor=#ffffff;" parent="MO7SUTFCpSmHmxjMydiH-53" vertex="1" connectable="0">
          <mxGeometry x="-0.4852" y="4" relative="1" as="geometry">
            <mxPoint x="1" as="offset"/>
          </mxGeometry>
        </mxCell>
        <mxCell id="MO7SUTFCpSmHmxjMydiH-109" style="edgeStyle=orthogonalEdgeStyle;rounded=0;orthogonalLoop=1;jettySize=auto;html=1;entryX=1;entryY=0.5;entryDx=0;entryDy=0;entryPerimeter=0;" parent="1" source="MO7SUTFCpSmHmxjMydiH-28" target="MO7SUTFCpSmHmxjMydiH-24" edge="1">
          <mxGeometry relative="1" as="geometry"/>
        </mxCell>
        <mxCell id="MO7SUTFCpSmHmxjMydiH-28" value="更新消费者履历" style="rounded=0;whiteSpace=wrap;html=1;" parent="1" vertex="1">
          <mxGeometry x="-447.5" y="1162.5" width="135" height="35" as="geometry"/>
        </mxCell>
        <mxCell id="MO7SUTFCpSmHmxjMydiH-29" style="edgeStyle=orthogonalEdgeStyle;rounded=0;orthogonalLoop=1;jettySize=auto;html=1;entryX=0.5;entryY=1;entryDx=0;entryDy=0;" parent="1" source="MO7SUTFCpSmHmxjMydiH-30" target="MO7SUTFCpSmHmxjMydiH-31" edge="1">
          <mxGeometry relative="1" as="geometry"/>
        </mxCell>
        <mxCell id="MO7SUTFCpSmHmxjMydiH-30" value="更新生产者履历" style="rounded=0;whiteSpace=wrap;html=1;" parent="1" vertex="1">
          <mxGeometry x="-862" y="818" width="135" height="35" as="geometry"/>
        </mxCell>
        <mxCell id="MO7SUTFCpSmHmxjMydiH-31" value="end" style="rounded=1;whiteSpace=wrap;html=1;" parent="1" vertex="1">
          <mxGeometry x="-819.5" y="770.5" width="50" height="25" as="geometry"/>
        </mxCell>
        <mxCell id="MO7SUTFCpSmHmxjMydiH-32" value="GD-20000" style="shape=cube;whiteSpace=wrap;html=1;boundedLbl=1;backgroundOutline=1;darkOpacity=0.05;darkOpacity2=0.1;" parent="1" vertex="1">
          <mxGeometry x="-53" y="490.5" width="370" height="40" as="geometry"/>
        </mxCell>
        <mxCell id="MO7SUTFCpSmHmxjMydiH-33" value="PT2-10000" style="shape=cube;whiteSpace=wrap;html=1;boundedLbl=1;backgroundOutline=1;darkOpacity=0.05;darkOpacity2=0.1;" parent="1" vertex="1">
          <mxGeometry x="-575.5" y="825.5" width="370" height="40" as="geometry"/>
        </mxCell>
        <mxCell id="MO7SUTFCpSmHmxjMydiH-34" value="POLICY-30000" style="shape=cube;whiteSpace=wrap;html=1;boundedLbl=1;backgroundOutline=1;darkOpacity=0.05;darkOpacity2=0.1;" parent="1" vertex="1">
          <mxGeometry x="-1063.5" y="491" width="370" height="40" as="geometry"/>
        </mxCell>
        <mxCell id="MO7SUTFCpSmHmxjMydiH-35" style="edgeStyle=orthogonalEdgeStyle;rounded=0;orthogonalLoop=1;jettySize=auto;html=1;entryX=0.5;entryY=0;entryDx=0;entryDy=0;strokeWidth=1;" parent="1" source="MO7SUTFCpSmHmxjMydiH-36" target="MO7SUTFCpSmHmxjMydiH-37" edge="1">
          <mxGeometry relative="1" as="geometry"/>
        </mxCell>
        <mxCell id="MO7SUTFCpSmHmxjMydiH-36" value="下保单/换设备不换保单" style="rounded=1;whiteSpace=wrap;html=1;" parent="1" vertex="1">
          <mxGeometry x="-946" y="531" width="135" height="60" as="geometry"/>
        </mxCell>
        <mxCell id="MO7SUTFCpSmHmxjMydiH-44" style="edgeStyle=orthogonalEdgeStyle;rounded=0;orthogonalLoop=1;jettySize=auto;html=1;" parent="1" source="MO7SUTFCpSmHmxjMydiH-37" target="MO7SUTFCpSmHmxjMydiH-18" edge="1">
          <mxGeometry relative="1" as="geometry"/>
        </mxCell>
        <mxCell id="MO7SUTFCpSmHmxjMydiH-37" value="新建生产者履历" style="rounded=0;whiteSpace=wrap;html=1;" parent="1" vertex="1">
          <mxGeometry x="-946" y="611" width="135" height="35" as="geometry"/>
        </mxCell>
        <mxCell id="MO7SUTFCpSmHmxjMydiH-42" style="edgeStyle=orthogonalEdgeStyle;rounded=0;orthogonalLoop=1;jettySize=auto;html=1;" parent="1" source="MO7SUTFCpSmHmxjMydiH-40" target="MO7SUTFCpSmHmxjMydiH-20" edge="1">
          <mxGeometry relative="1" as="geometry"/>
        </mxCell>
        <mxCell id="MO7SUTFCpSmHmxjMydiH-40" value="" style="verticalLabelPosition=bottom;verticalAlign=top;html=1;strokeWidth=2;shape=mxgraph.flowchart.parallel_mode;pointerEvents=1" parent="1" vertex="1">
          <mxGeometry x="-427.5" y="905.5" width="95" height="40" as="geometry"/>
        </mxCell>
        <mxCell id="MO7SUTFCpSmHmxjMydiH-41" value="分布式设备锁" style="text;html=1;resizable=0;points=[];autosize=1;align=left;verticalAlign=top;spacingTop=-4;" parent="1" vertex="1">
          <mxGeometry x="-422.5" y="945.5" width="90" height="20" as="geometry"/>
        </mxCell>
        <mxCell id="MO7SUTFCpSmHmxjMydiH-43" value="MQ" style="shape=cube;whiteSpace=wrap;html=1;boundedLbl=1;backgroundOutline=1;darkOpacity=0.05;darkOpacity2=0.1;" parent="1" vertex="1">
          <mxGeometry x="-557.5" y="490.5" width="370" height="40" as="geometry"/>
        </mxCell>
        <mxCell id="MO7SUTFCpSmHmxjMydiH-46" style="edgeStyle=orthogonalEdgeStyle;rounded=0;orthogonalLoop=1;jettySize=auto;html=1;entryX=0.5;entryY=0;entryDx=0;entryDy=0;strokeWidth=1;" parent="1" source="MO7SUTFCpSmHmxjMydiH-47" target="MO7SUTFCpSmHmxjMydiH-48" edge="1">
          <mxGeometry relative="1" as="geometry"/>
        </mxCell>
        <mxCell id="MO7SUTFCpSmHmxjMydiH-47" value="钱吧/承装自装/库存车" style="rounded=1;whiteSpace=wrap;html=1;" parent="1" vertex="1">
          <mxGeometry x="83.5" y="533" width="120" height="60" as="geometry"/>
        </mxCell>
        <mxCell id="MO7SUTFCpSmHmxjMydiH-54" style="edgeStyle=orthogonalEdgeStyle;rounded=0;orthogonalLoop=1;jettySize=auto;html=1;" parent="1" source="MO7SUTFCpSmHmxjMydiH-48" target="MO7SUTFCpSmHmxjMydiH-18" edge="1">
          <mxGeometry relative="1" as="geometry"/>
        </mxCell>
        <mxCell id="MO7SUTFCpSmHmxjMydiH-48" value="新建生产者履历" style="rounded=0;whiteSpace=wrap;html=1;" parent="1" vertex="1">
          <mxGeometry x="76" y="611" width="135" height="35" as="geometry"/>
        </mxCell>
        <mxCell id="MO7SUTFCpSmHmxjMydiH-50" style="edgeStyle=orthogonalEdgeStyle;rounded=0;orthogonalLoop=1;jettySize=auto;html=1;entryX=0.5;entryY=1;entryDx=0;entryDy=0;" parent="1" source="MO7SUTFCpSmHmxjMydiH-51" target="MO7SUTFCpSmHmxjMydiH-52" edge="1">
          <mxGeometry relative="1" as="geometry"/>
        </mxCell>
        <mxCell id="MO7SUTFCpSmHmxjMydiH-51" value="更新生产者履历" style="rounded=0;whiteSpace=wrap;html=1;" parent="1" vertex="1">
          <mxGeometry x="-70" y="786.5" width="135" height="35" as="geometry"/>
        </mxCell>
        <mxCell id="MO7SUTFCpSmHmxjMydiH-52" value="end" style="rounded=1;whiteSpace=wrap;html=1;" parent="1" vertex="1">
          <mxGeometry x="-27.5" y="739" width="50" height="25" as="geometry"/>
        </mxCell>
        <mxCell id="MO7SUTFCpSmHmxjMydiH-154" style="edgeStyle=orthogonalEdgeStyle;rounded=0;orthogonalLoop=1;jettySize=auto;html=1;dashed=1;dashPattern=1 4;strokeWidth=5;" parent="1" source="MO7SUTFCpSmHmxjMydiH-59" target="MO7SUTFCpSmHmxjMydiH-136" edge="1">
          <mxGeometry relative="1" as="geometry"/>
        </mxCell>
        <mxCell id="MO7SUTFCpSmHmxjMydiH-59" value="&lt;span style=&quot;white-space: normal&quot;&gt;更新&lt;/span&gt;&lt;br style=&quot;white-space: normal&quot;&gt;&lt;span style=&quot;white-space: normal&quot;&gt;重置激活时间和未激活状态&lt;br&gt;&lt;/span&gt;&lt;a href=&quot;http://192.168.1.199:5000/organization/repository/editor?id=55&amp;amp;mod=195&amp;amp;itf=1975&quot;&gt;http://192.168.1.199:5000/organization/repository/editor?id=55&amp;amp;mod=195&amp;amp;itf=1975&lt;/a&gt;&lt;br&gt;&lt;span style=&quot;white-space: normal&quot;&gt;&lt;br&gt;&lt;br&gt;&lt;/span&gt;&lt;a href=&quot;https://www.processon.com/view/link/5db261b2e4b04913a27bc4bd&quot;&gt;https://www.processon.com/view/link/5db261b2e4b04913a27bc4bd&lt;/a&gt;&lt;span style=&quot;white-space: normal&quot;&gt;&lt;br&gt;&lt;/span&gt;" style="shape=process;whiteSpace=wrap;html=1;backgroundOutline=1;" parent="1" vertex="1">
          <mxGeometry x="-1293" y="-1045" width="405" height="127" as="geometry"/>
        </mxCell>
        <mxCell id="MO7SUTFCpSmHmxjMydiH-60" value="PT2-10000" style="shape=cube;whiteSpace=wrap;html=1;boundedLbl=1;backgroundOutline=1;darkOpacity=0.05;darkOpacity2=0.1;" parent="1" vertex="1">
          <mxGeometry x="-1320" y="-1260" width="370" height="40" as="geometry"/>
        </mxCell>
        <mxCell id="MO7SUTFCpSmHmxjMydiH-61" value="ERP-40000" style="shape=cube;whiteSpace=wrap;html=1;boundedLbl=1;backgroundOutline=1;darkOpacity=0.05;darkOpacity2=0.1;" parent="1" vertex="1">
          <mxGeometry x="-2107" y="-1260" width="370" height="40" as="geometry"/>
        </mxCell>
        <mxCell id="MO7SUTFCpSmHmxjMydiH-62" value="erp调拨" style="rounded=1;whiteSpace=wrap;html=1;" parent="1" vertex="1">
          <mxGeometry x="-2009" y="-1217.5" width="120" height="60" as="geometry"/>
        </mxCell>
        <mxCell id="MO7SUTFCpSmHmxjMydiH-74" style="edgeStyle=orthogonalEdgeStyle;rounded=0;orthogonalLoop=1;jettySize=auto;html=1;entryX=0.5;entryY=0;entryDx=0;entryDy=0;strokeWidth=1;" parent="1" source="MO7SUTFCpSmHmxjMydiH-75" target="MO7SUTFCpSmHmxjMydiH-81" edge="1">
          <mxGeometry relative="1" as="geometry"/>
        </mxCell>
        <mxCell id="MO7SUTFCpSmHmxjMydiH-75" value="同步&lt;br&gt;设备库存&lt;br&gt;相关信息" style="rounded=1;whiteSpace=wrap;html=1;" parent="1" vertex="1">
          <mxGeometry x="-2843" y="510.5" width="120" height="60" as="geometry"/>
        </mxCell>
        <mxCell id="MO7SUTFCpSmHmxjMydiH-76" style="edgeStyle=orthogonalEdgeStyle;rounded=0;orthogonalLoop=1;jettySize=auto;html=1;entryX=0;entryY=0.5;entryDx=0;entryDy=0;strokeWidth=1;" parent="1" source="MO7SUTFCpSmHmxjMydiH-77" target="MO7SUTFCpSmHmxjMydiH-79" edge="1">
          <mxGeometry relative="1" as="geometry"/>
        </mxCell>
        <mxCell id="MO7SUTFCpSmHmxjMydiH-77" value="&lt;font&gt;&lt;span style=&quot;font-size: 17px&quot;&gt;（通知队列）&lt;/span&gt;&lt;br&gt;&lt;div style=&quot;text-align: left&quot;&gt;&lt;span style=&quot;font-size: 17px&quot;&gt;TAG：&lt;i&gt;&lt;font color=&quot;#ff3333&quot;&gt;44000&lt;/font&gt;&lt;/i&gt;&lt;/span&gt;&lt;/div&gt;&lt;div style=&quot;text-align: left&quot;&gt;&lt;br&gt;&lt;/div&gt;&lt;/font&gt;" style="strokeWidth=2;html=1;shape=mxgraph.flowchart.direct_data;whiteSpace=wrap;align=center;fillColor=#d5e8d4;strokeColor=#82b366;" parent="1" vertex="1">
          <mxGeometry x="-2506" y="558" width="260" height="100" as="geometry"/>
        </mxCell>
        <mxCell id="MO7SUTFCpSmHmxjMydiH-78" style="edgeStyle=orthogonalEdgeStyle;rounded=0;orthogonalLoop=1;jettySize=auto;html=1;entryX=0.5;entryY=0;entryDx=0;entryDy=0;" parent="1" source="MO7SUTFCpSmHmxjMydiH-79" target="MO7SUTFCpSmHmxjMydiH-85" edge="1">
          <mxGeometry relative="1" as="geometry">
            <mxPoint x="-1969" y="660.5" as="targetPoint"/>
          </mxGeometry>
        </mxCell>
        <mxCell id="MO7SUTFCpSmHmxjMydiH-79" value="新建消费者履历" style="rounded=0;whiteSpace=wrap;html=1;" parent="1" vertex="1">
          <mxGeometry x="-2036.5" y="590.5" width="135" height="35" as="geometry"/>
        </mxCell>
        <mxCell id="MO7SUTFCpSmHmxjMydiH-80" style="edgeStyle=orthogonalEdgeStyle;rounded=0;orthogonalLoop=1;jettySize=auto;html=1;strokeWidth=1;" parent="1" source="MO7SUTFCpSmHmxjMydiH-81" target="MO7SUTFCpSmHmxjMydiH-77" edge="1">
          <mxGeometry relative="1" as="geometry"/>
        </mxCell>
        <mxCell id="MO7SUTFCpSmHmxjMydiH-81" value="新建生产者履历" style="rounded=0;whiteSpace=wrap;html=1;" parent="1" vertex="1">
          <mxGeometry x="-2850.5" y="590.5" width="135" height="35" as="geometry"/>
        </mxCell>
        <mxCell id="MO7SUTFCpSmHmxjMydiH-112" style="edgeStyle=orthogonalEdgeStyle;rounded=0;orthogonalLoop=1;jettySize=auto;html=1;" parent="1" source="MO7SUTFCpSmHmxjMydiH-83" target="MO7SUTFCpSmHmxjMydiH-89" edge="1">
          <mxGeometry relative="1" as="geometry"/>
        </mxCell>
        <mxCell id="MO7SUTFCpSmHmxjMydiH-83" value="&lt;font&gt;&lt;span style=&quot;font-size: 17px&quot;&gt;（回调队列）&lt;br&gt;&lt;/span&gt;&lt;span style=&quot;font-size: 17px ; text-align: left&quot;&gt;TAG：&lt;/span&gt;&lt;i style=&quot;font-size: 17px ; text-align: left&quot;&gt;&lt;font color=&quot;#ff3333&quot;&gt;44000&lt;/font&gt;&lt;/i&gt;&lt;span style=&quot;font-size: 17px&quot;&gt;&lt;br&gt;&lt;/span&gt;&lt;/font&gt;" style="strokeWidth=2;html=1;shape=mxgraph.flowchart.direct_data;whiteSpace=wrap;align=center;fillColor=#dae8fc;strokeColor=#6c8ebf;" parent="1" vertex="1">
          <mxGeometry x="-2463" y="698" width="170" height="50" as="geometry"/>
        </mxCell>
        <mxCell id="MO7SUTFCpSmHmxjMydiH-84" value="" style="edgeStyle=orthogonalEdgeStyle;rounded=0;orthogonalLoop=1;jettySize=auto;html=1;" parent="1" source="MO7SUTFCpSmHmxjMydiH-85" target="MO7SUTFCpSmHmxjMydiH-87" edge="1">
          <mxGeometry relative="1" as="geometry"/>
        </mxCell>
        <mxCell id="MO7SUTFCpSmHmxjMydiH-85" value="批量更新逻辑" style="rounded=0;whiteSpace=wrap;html=1;" parent="1" vertex="1">
          <mxGeometry x="-2036.5" y="650.5" width="135" height="35" as="geometry"/>
        </mxCell>
        <mxCell id="MO7SUTFCpSmHmxjMydiH-111" style="edgeStyle=orthogonalEdgeStyle;rounded=0;orthogonalLoop=1;jettySize=auto;html=1;entryX=1;entryY=0.5;entryDx=0;entryDy=0;entryPerimeter=0;" parent="1" source="MO7SUTFCpSmHmxjMydiH-87" target="MO7SUTFCpSmHmxjMydiH-83" edge="1">
          <mxGeometry relative="1" as="geometry"/>
        </mxCell>
        <mxCell id="MO7SUTFCpSmHmxjMydiH-87" value="更新消费者履历" style="rounded=0;whiteSpace=wrap;html=1;" parent="1" vertex="1">
          <mxGeometry x="-2036.5" y="705.5" width="135" height="35" as="geometry"/>
        </mxCell>
        <mxCell id="MO7SUTFCpSmHmxjMydiH-88" style="edgeStyle=orthogonalEdgeStyle;rounded=0;orthogonalLoop=1;jettySize=auto;html=1;entryX=0.5;entryY=1;entryDx=0;entryDy=0;" parent="1" source="MO7SUTFCpSmHmxjMydiH-89" target="MO7SUTFCpSmHmxjMydiH-90" edge="1">
          <mxGeometry relative="1" as="geometry"/>
        </mxCell>
        <mxCell id="MO7SUTFCpSmHmxjMydiH-89" value="更新生产者履历" style="rounded=0;whiteSpace=wrap;html=1;" parent="1" vertex="1">
          <mxGeometry x="-2850.5" y="705.5" width="135" height="35" as="geometry"/>
        </mxCell>
        <mxCell id="MO7SUTFCpSmHmxjMydiH-90" value="end" style="rounded=1;whiteSpace=wrap;html=1;" parent="1" vertex="1">
          <mxGeometry x="-2808" y="658" width="50" height="25" as="geometry"/>
        </mxCell>
        <mxCell id="MO7SUTFCpSmHmxjMydiH-91" value="PT2" style="shape=cube;whiteSpace=wrap;html=1;boundedLbl=1;backgroundOutline=1;darkOpacity=0.05;darkOpacity2=0.1;" parent="1" vertex="1">
          <mxGeometry x="-2170" y="470.5" width="370" height="40" as="geometry"/>
        </mxCell>
        <mxCell id="MO7SUTFCpSmHmxjMydiH-92" value="ERP-40000" style="shape=cube;whiteSpace=wrap;html=1;boundedLbl=1;backgroundOutline=1;darkOpacity=0.05;darkOpacity2=0.1;" parent="1" vertex="1">
          <mxGeometry x="-2896" y="470.5" width="370" height="40" as="geometry"/>
        </mxCell>
        <mxCell id="MO7SUTFCpSmHmxjMydiH-118" style="edgeStyle=orthogonalEdgeStyle;rounded=0;orthogonalLoop=1;jettySize=auto;html=1;entryX=0.5;entryY=0;entryDx=0;entryDy=0;strokeWidth=1;" parent="1" source="MO7SUTFCpSmHmxjMydiH-62" target="MO7SUTFCpSmHmxjMydiH-124" edge="1">
          <mxGeometry relative="1" as="geometry">
            <mxPoint x="-1948.7142857142853" y="-1145" as="sourcePoint"/>
          </mxGeometry>
        </mxCell>
        <mxCell id="MO7SUTFCpSmHmxjMydiH-119" style="edgeStyle=orthogonalEdgeStyle;rounded=0;orthogonalLoop=1;jettySize=auto;html=1;entryX=0;entryY=0.5;entryDx=0;entryDy=0;strokeWidth=1;" parent="1" source="MO7SUTFCpSmHmxjMydiH-120" target="MO7SUTFCpSmHmxjMydiH-122" edge="1">
          <mxGeometry relative="1" as="geometry"/>
        </mxCell>
        <mxCell id="MO7SUTFCpSmHmxjMydiH-120" value="&lt;font&gt;&lt;span style=&quot;font-size: 17px&quot;&gt;（通知队列）&lt;/span&gt;&lt;br&gt;&lt;div style=&quot;text-align: left&quot;&gt;&lt;span style=&quot;font-size: 17px&quot;&gt;TAG：&lt;i&gt;&lt;font color=&quot;#ff3333&quot;&gt;44001&lt;/font&gt;&lt;/i&gt;&lt;/span&gt;&lt;/div&gt;&lt;div style=&quot;text-align: left&quot;&gt;&lt;br&gt;&lt;/div&gt;&lt;/font&gt;" style="strokeWidth=2;html=1;shape=mxgraph.flowchart.direct_data;whiteSpace=wrap;align=center;fillColor=#d5e8d4;strokeColor=#82b366;" parent="1" vertex="1">
          <mxGeometry x="-1672" y="-1157.5" width="260" height="100" as="geometry"/>
        </mxCell>
        <mxCell id="MO7SUTFCpSmHmxjMydiH-121" style="edgeStyle=orthogonalEdgeStyle;rounded=0;orthogonalLoop=1;jettySize=auto;html=1;entryX=0.5;entryY=0;entryDx=0;entryDy=0;" parent="1" source="MO7SUTFCpSmHmxjMydiH-122" target="MO7SUTFCpSmHmxjMydiH-59" edge="1">
          <mxGeometry relative="1" as="geometry">
            <mxPoint x="-1135.4999999999995" y="-1065.0714285714284" as="targetPoint"/>
          </mxGeometry>
        </mxCell>
        <mxCell id="MO7SUTFCpSmHmxjMydiH-122" value="新建消费者履历" style="rounded=0;whiteSpace=wrap;html=1;" parent="1" vertex="1">
          <mxGeometry x="-1158" y="-1125" width="135" height="35" as="geometry"/>
        </mxCell>
        <mxCell id="MO7SUTFCpSmHmxjMydiH-123" style="edgeStyle=orthogonalEdgeStyle;rounded=0;orthogonalLoop=1;jettySize=auto;html=1;strokeWidth=1;" parent="1" source="MO7SUTFCpSmHmxjMydiH-124" target="MO7SUTFCpSmHmxjMydiH-120" edge="1">
          <mxGeometry relative="1" as="geometry"/>
        </mxCell>
        <mxCell id="MO7SUTFCpSmHmxjMydiH-124" value="新建生产者履历" style="rounded=0;whiteSpace=wrap;html=1;" parent="1" vertex="1">
          <mxGeometry x="-2016.5" y="-1125" width="135" height="35" as="geometry"/>
        </mxCell>
        <mxCell id="MO7SUTFCpSmHmxjMydiH-125" style="edgeStyle=orthogonalEdgeStyle;rounded=0;orthogonalLoop=1;jettySize=auto;html=1;entryX=1;entryY=0.5;entryDx=0;entryDy=0;" parent="1" source="MO7SUTFCpSmHmxjMydiH-126" target="MO7SUTFCpSmHmxjMydiH-132" edge="1">
          <mxGeometry relative="1" as="geometry">
            <mxPoint x="-1872" y="-992.5" as="targetPoint"/>
          </mxGeometry>
        </mxCell>
        <mxCell id="MO7SUTFCpSmHmxjMydiH-126" value="&lt;font&gt;&lt;span style=&quot;font-size: 17px&quot;&gt;（回调队列）&lt;br&gt;&lt;/span&gt;&lt;span style=&quot;font-size: 17px ; text-align: left&quot;&gt;TAG：&lt;/span&gt;&lt;i style=&quot;font-size: 17px ; text-align: left&quot;&gt;&lt;font color=&quot;#ff3333&quot;&gt;44001&lt;/font&gt;&lt;/i&gt;&lt;span style=&quot;font-size: 17px&quot;&gt;&lt;br&gt;&lt;/span&gt;&lt;/font&gt;" style="strokeWidth=2;html=1;shape=mxgraph.flowchart.direct_data;whiteSpace=wrap;align=center;fillColor=#dae8fc;strokeColor=#6c8ebf;" parent="1" vertex="1">
          <mxGeometry x="-1757" y="-956" width="170" height="50" as="geometry"/>
        </mxCell>
        <mxCell id="MO7SUTFCpSmHmxjMydiH-127" value="" style="edgeStyle=orthogonalEdgeStyle;rounded=0;orthogonalLoop=1;jettySize=auto;html=1;" parent="1" source="MO7SUTFCpSmHmxjMydiH-59" target="MO7SUTFCpSmHmxjMydiH-130" edge="1">
          <mxGeometry relative="1" as="geometry">
            <mxPoint x="-1135.4999999999995" y="-1030" as="sourcePoint"/>
          </mxGeometry>
        </mxCell>
        <mxCell id="MO7SUTFCpSmHmxjMydiH-129" style="edgeStyle=orthogonalEdgeStyle;rounded=0;orthogonalLoop=1;jettySize=auto;html=1;entryX=1;entryY=0.5;entryDx=0;entryDy=0;entryPerimeter=0;" parent="1" source="MO7SUTFCpSmHmxjMydiH-130" target="MO7SUTFCpSmHmxjMydiH-126" edge="1">
          <mxGeometry relative="1" as="geometry"/>
        </mxCell>
        <mxCell id="MO7SUTFCpSmHmxjMydiH-130" value="更新消费者履历" style="rounded=0;whiteSpace=wrap;html=1;" parent="1" vertex="1">
          <mxGeometry x="-1517" y="-948.5" width="135" height="35" as="geometry"/>
        </mxCell>
        <mxCell id="MO7SUTFCpSmHmxjMydiH-131" style="edgeStyle=orthogonalEdgeStyle;rounded=0;orthogonalLoop=1;jettySize=auto;html=1;entryX=0.5;entryY=1;entryDx=0;entryDy=0;" parent="1" source="MO7SUTFCpSmHmxjMydiH-132" target="MO7SUTFCpSmHmxjMydiH-133" edge="1">
          <mxGeometry relative="1" as="geometry"/>
        </mxCell>
        <mxCell id="MO7SUTFCpSmHmxjMydiH-132" value="更新生产者履历" style="rounded=0;whiteSpace=wrap;html=1;" parent="1" vertex="1">
          <mxGeometry x="-2016.5" y="-948.5" width="135" height="35" as="geometry"/>
        </mxCell>
        <mxCell id="MO7SUTFCpSmHmxjMydiH-133" value="end" style="rounded=1;whiteSpace=wrap;html=1;" parent="1" vertex="1">
          <mxGeometry x="-1974" y="-996" width="50" height="25" as="geometry"/>
        </mxCell>
        <mxCell id="MO7SUTFCpSmHmxjMydiH-135" style="edgeStyle=orthogonalEdgeStyle;rounded=0;orthogonalLoop=1;jettySize=auto;html=1;entryX=0.5;entryY=0;entryDx=0;entryDy=0;strokeWidth=1;" parent="1" source="MO7SUTFCpSmHmxjMydiH-136" target="MO7SUTFCpSmHmxjMydiH-142" edge="1">
          <mxGeometry relative="1" as="geometry"/>
        </mxCell>
        <mxCell id="MO7SUTFCpSmHmxjMydiH-136" value="首次激活时间变更" style="rounded=1;whiteSpace=wrap;html=1;" parent="1" vertex="1">
          <mxGeometry x="-1183.5" y="-804" width="120" height="60" as="geometry"/>
        </mxCell>
        <mxCell id="MO7SUTFCpSmHmxjMydiH-164" style="edgeStyle=orthogonalEdgeStyle;rounded=0;orthogonalLoop=1;jettySize=auto;html=1;strokeWidth=1;" parent="1" source="MO7SUTFCpSmHmxjMydiH-138" target="MO7SUTFCpSmHmxjMydiH-140" edge="1">
          <mxGeometry relative="1" as="geometry"/>
        </mxCell>
        <mxCell id="MO7SUTFCpSmHmxjMydiH-138" value="&lt;font&gt;&lt;span style=&quot;font-size: 17px&quot;&gt;（通知队列）&lt;/span&gt;&lt;br&gt;&lt;div style=&quot;text-align: left&quot;&gt;&lt;span style=&quot;font-size: 17px&quot;&gt;TAG：&lt;i&gt;&lt;font color=&quot;#ff3333&quot;&gt;14001&lt;/font&gt;&lt;/i&gt;&lt;/span&gt;&lt;/div&gt;&lt;div style=&quot;text-align: left&quot;&gt;&lt;br&gt;&lt;/div&gt;&lt;/font&gt;" style="strokeWidth=2;html=1;shape=mxgraph.flowchart.direct_data;whiteSpace=wrap;align=center;fillColor=#d5e8d4;strokeColor=#82b366;" parent="1" vertex="1">
          <mxGeometry x="-1605.5" y="-756.5" width="260" height="100" as="geometry"/>
        </mxCell>
        <mxCell id="MO7SUTFCpSmHmxjMydiH-139" style="edgeStyle=orthogonalEdgeStyle;rounded=0;orthogonalLoop=1;jettySize=auto;html=1;entryX=0.5;entryY=0;entryDx=0;entryDy=0;" parent="1" source="MO7SUTFCpSmHmxjMydiH-140" target="MO7SUTFCpSmHmxjMydiH-146" edge="1">
          <mxGeometry relative="1" as="geometry">
            <mxPoint x="-1870" y="-646.5" as="targetPoint"/>
          </mxGeometry>
        </mxCell>
        <mxCell id="MO7SUTFCpSmHmxjMydiH-140" value="新建消费者履历" style="rounded=0;whiteSpace=wrap;html=1;" parent="1" vertex="1">
          <mxGeometry x="-1937.5" y="-724" width="135" height="35" as="geometry"/>
        </mxCell>
        <mxCell id="MO7SUTFCpSmHmxjMydiH-141" style="edgeStyle=orthogonalEdgeStyle;rounded=0;orthogonalLoop=1;jettySize=auto;html=1;strokeWidth=1;" parent="1" source="MO7SUTFCpSmHmxjMydiH-142" target="MO7SUTFCpSmHmxjMydiH-138" edge="1">
          <mxGeometry relative="1" as="geometry"/>
        </mxCell>
        <mxCell id="MO7SUTFCpSmHmxjMydiH-142" value="新建生产者履历" style="rounded=0;whiteSpace=wrap;html=1;" parent="1" vertex="1">
          <mxGeometry x="-1191" y="-724" width="135" height="35" as="geometry"/>
        </mxCell>
        <mxCell id="MO7SUTFCpSmHmxjMydiH-143" style="edgeStyle=orthogonalEdgeStyle;rounded=0;orthogonalLoop=1;jettySize=auto;html=1;entryX=0;entryY=0.5;entryDx=0;entryDy=0;" parent="1" source="MO7SUTFCpSmHmxjMydiH-144" target="MO7SUTFCpSmHmxjMydiH-150" edge="1">
          <mxGeometry relative="1" as="geometry">
            <mxPoint x="-1748" y="-581.5" as="targetPoint"/>
          </mxGeometry>
        </mxCell>
        <mxCell id="MO7SUTFCpSmHmxjMydiH-144" value="&lt;font&gt;&lt;span style=&quot;font-size: 17px&quot;&gt;（回调队列）&lt;br&gt;&lt;/span&gt;&lt;span style=&quot;font-size: 17px ; text-align: left&quot;&gt;TAG：&lt;/span&gt;&lt;i style=&quot;font-size: 17px ; text-align: left&quot;&gt;&lt;font color=&quot;#ff3333&quot;&gt;14001&lt;/font&gt;&lt;/i&gt;&lt;span style=&quot;font-size: 17px&quot;&gt;&lt;br&gt;&lt;/span&gt;&lt;/font&gt;" style="strokeWidth=2;html=1;shape=mxgraph.flowchart.direct_data;whiteSpace=wrap;align=center;fillColor=#dae8fc;strokeColor=#6c8ebf;" parent="1" vertex="1">
          <mxGeometry x="-1573" y="-609" width="170" height="50" as="geometry"/>
        </mxCell>
        <mxCell id="MO7SUTFCpSmHmxjMydiH-145" value="" style="edgeStyle=orthogonalEdgeStyle;rounded=0;orthogonalLoop=1;jettySize=auto;html=1;" parent="1" source="MO7SUTFCpSmHmxjMydiH-146" target="MO7SUTFCpSmHmxjMydiH-148" edge="1">
          <mxGeometry relative="1" as="geometry"/>
        </mxCell>
        <mxCell id="MO7SUTFCpSmHmxjMydiH-146" value="根据激活时间变更&lt;br&gt;处理逻辑" style="rounded=0;whiteSpace=wrap;html=1;" parent="1" vertex="1">
          <mxGeometry x="-1937.5" y="-666" width="135" height="35" as="geometry"/>
        </mxCell>
        <mxCell id="MO7SUTFCpSmHmxjMydiH-147" style="edgeStyle=orthogonalEdgeStyle;rounded=0;orthogonalLoop=1;jettySize=auto;html=1;" parent="1" source="MO7SUTFCpSmHmxjMydiH-148" target="MO7SUTFCpSmHmxjMydiH-144" edge="1">
          <mxGeometry relative="1" as="geometry"/>
        </mxCell>
        <mxCell id="MO7SUTFCpSmHmxjMydiH-148" value="更新消费者履历" style="rounded=0;whiteSpace=wrap;html=1;" parent="1" vertex="1">
          <mxGeometry x="-1937.5" y="-601.5" width="135" height="35" as="geometry"/>
        </mxCell>
        <mxCell id="MO7SUTFCpSmHmxjMydiH-149" style="edgeStyle=orthogonalEdgeStyle;rounded=0;orthogonalLoop=1;jettySize=auto;html=1;entryX=0.5;entryY=1;entryDx=0;entryDy=0;" parent="1" source="MO7SUTFCpSmHmxjMydiH-150" target="MO7SUTFCpSmHmxjMydiH-151" edge="1">
          <mxGeometry relative="1" as="geometry"/>
        </mxCell>
        <mxCell id="MO7SUTFCpSmHmxjMydiH-150" value="更新生产者履历" style="rounded=0;whiteSpace=wrap;html=1;" parent="1" vertex="1">
          <mxGeometry x="-1191" y="-601.5" width="135" height="35" as="geometry"/>
        </mxCell>
        <mxCell id="MO7SUTFCpSmHmxjMydiH-151" value="end" style="rounded=1;whiteSpace=wrap;html=1;" parent="1" vertex="1">
          <mxGeometry x="-1149" y="-648.5" width="50" height="25" as="geometry"/>
        </mxCell>
        <mxCell id="MO7SUTFCpSmHmxjMydiH-166" style="edgeStyle=orthogonalEdgeStyle;rounded=0;orthogonalLoop=1;jettySize=auto;html=1;entryX=0.5;entryY=0;entryDx=0;entryDy=0;strokeWidth=1;" parent="1" source="MO7SUTFCpSmHmxjMydiH-167" target="MO7SUTFCpSmHmxjMydiH-173" edge="1">
          <mxGeometry relative="1" as="geometry"/>
        </mxCell>
        <mxCell id="MO7SUTFCpSmHmxjMydiH-167" value="更换设备SIM卡号" style="rounded=1;whiteSpace=wrap;html=1;" parent="1" vertex="1">
          <mxGeometry x="-3227" y="-130" width="120" height="60" as="geometry"/>
        </mxCell>
        <mxCell id="MO7SUTFCpSmHmxjMydiH-168" style="edgeStyle=orthogonalEdgeStyle;rounded=0;orthogonalLoop=1;jettySize=auto;html=1;entryX=0;entryY=0.5;entryDx=0;entryDy=0;strokeWidth=1;" parent="1" source="MO7SUTFCpSmHmxjMydiH-169" target="MO7SUTFCpSmHmxjMydiH-171" edge="1">
          <mxGeometry relative="1" as="geometry"/>
        </mxCell>
        <mxCell id="MO7SUTFCpSmHmxjMydiH-169" value="&lt;font&gt;&lt;span style=&quot;font-size: 17px&quot;&gt;（通知队列）&lt;/span&gt;&lt;br&gt;&lt;div style=&quot;text-align: left&quot;&gt;&lt;span style=&quot;font-size: 17px&quot;&gt;TAG：&lt;i&gt;&lt;font color=&quot;#ff3333&quot;&gt;44002&lt;/font&gt;&lt;/i&gt;&lt;/span&gt;&lt;/div&gt;&lt;div style=&quot;text-align: left&quot;&gt;&lt;br&gt;&lt;/div&gt;&lt;/font&gt;" style="strokeWidth=2;html=1;shape=mxgraph.flowchart.direct_data;whiteSpace=wrap;align=center;fillColor=#d5e8d4;strokeColor=#82b366;" parent="1" vertex="1">
          <mxGeometry x="-2890" y="-82.5" width="260" height="100" as="geometry"/>
        </mxCell>
        <mxCell id="MO7SUTFCpSmHmxjMydiH-170" style="edgeStyle=orthogonalEdgeStyle;rounded=0;orthogonalLoop=1;jettySize=auto;html=1;entryX=0.5;entryY=0;entryDx=0;entryDy=0;" parent="1" source="MO7SUTFCpSmHmxjMydiH-171" target="MO7SUTFCpSmHmxjMydiH-177" edge="1">
          <mxGeometry relative="1" as="geometry">
            <mxPoint x="-2353" y="20" as="targetPoint"/>
          </mxGeometry>
        </mxCell>
        <mxCell id="MO7SUTFCpSmHmxjMydiH-171" value="新建消费者履历" style="rounded=0;whiteSpace=wrap;html=1;" parent="1" vertex="1">
          <mxGeometry x="-2420.5" y="-50" width="135" height="35" as="geometry"/>
        </mxCell>
        <mxCell id="MO7SUTFCpSmHmxjMydiH-172" style="edgeStyle=orthogonalEdgeStyle;rounded=0;orthogonalLoop=1;jettySize=auto;html=1;strokeWidth=1;" parent="1" source="MO7SUTFCpSmHmxjMydiH-173" target="MO7SUTFCpSmHmxjMydiH-169" edge="1">
          <mxGeometry relative="1" as="geometry"/>
        </mxCell>
        <mxCell id="MO7SUTFCpSmHmxjMydiH-173" value="新建生产者履历" style="rounded=0;whiteSpace=wrap;html=1;" parent="1" vertex="1">
          <mxGeometry x="-3234.5" y="-50" width="135" height="35" as="geometry"/>
        </mxCell>
        <mxCell id="MO7SUTFCpSmHmxjMydiH-174" style="edgeStyle=orthogonalEdgeStyle;rounded=0;orthogonalLoop=1;jettySize=auto;html=1;" parent="1" source="MO7SUTFCpSmHmxjMydiH-175" target="MO7SUTFCpSmHmxjMydiH-181" edge="1">
          <mxGeometry relative="1" as="geometry"/>
        </mxCell>
        <mxCell id="MO7SUTFCpSmHmxjMydiH-175" value="&lt;font&gt;&lt;span style=&quot;font-size: 17px&quot;&gt;（回调队列）&lt;br&gt;&lt;/span&gt;&lt;span style=&quot;font-size: 17px ; text-align: left&quot;&gt;TAG：&lt;/span&gt;&lt;i style=&quot;font-size: 17px ; text-align: left&quot;&gt;&lt;font color=&quot;#ff3333&quot;&gt;44002&lt;/font&gt;&lt;/i&gt;&lt;span style=&quot;font-size: 17px&quot;&gt;&lt;br&gt;&lt;/span&gt;&lt;/font&gt;" style="strokeWidth=2;html=1;shape=mxgraph.flowchart.direct_data;whiteSpace=wrap;align=center;fillColor=#dae8fc;strokeColor=#6c8ebf;" parent="1" vertex="1">
          <mxGeometry x="-2847" y="57.5" width="170" height="50" as="geometry"/>
        </mxCell>
        <mxCell id="MO7SUTFCpSmHmxjMydiH-176" value="" style="edgeStyle=orthogonalEdgeStyle;rounded=0;orthogonalLoop=1;jettySize=auto;html=1;" parent="1" source="MO7SUTFCpSmHmxjMydiH-177" target="MO7SUTFCpSmHmxjMydiH-179" edge="1">
          <mxGeometry relative="1" as="geometry"/>
        </mxCell>
        <mxCell id="MO7SUTFCpSmHmxjMydiH-177" value="更换设备SIM卡号" style="rounded=0;whiteSpace=wrap;html=1;" parent="1" vertex="1">
          <mxGeometry x="-2420.5" y="10" width="135" height="35" as="geometry"/>
        </mxCell>
        <mxCell id="MO7SUTFCpSmHmxjMydiH-178" style="edgeStyle=orthogonalEdgeStyle;rounded=0;orthogonalLoop=1;jettySize=auto;html=1;entryX=1;entryY=0.5;entryDx=0;entryDy=0;entryPerimeter=0;" parent="1" source="MO7SUTFCpSmHmxjMydiH-179" target="MO7SUTFCpSmHmxjMydiH-175" edge="1">
          <mxGeometry relative="1" as="geometry"/>
        </mxCell>
        <mxCell id="MO7SUTFCpSmHmxjMydiH-179" value="更新消费者履历" style="rounded=0;whiteSpace=wrap;html=1;" parent="1" vertex="1">
          <mxGeometry x="-2420.5" y="65" width="135" height="35" as="geometry"/>
        </mxCell>
        <mxCell id="MO7SUTFCpSmHmxjMydiH-180" style="edgeStyle=orthogonalEdgeStyle;rounded=0;orthogonalLoop=1;jettySize=auto;html=1;entryX=0.5;entryY=1;entryDx=0;entryDy=0;" parent="1" source="MO7SUTFCpSmHmxjMydiH-181" target="MO7SUTFCpSmHmxjMydiH-182" edge="1">
          <mxGeometry relative="1" as="geometry"/>
        </mxCell>
        <mxCell id="MO7SUTFCpSmHmxjMydiH-181" value="更新生产者履历" style="rounded=0;whiteSpace=wrap;html=1;" parent="1" vertex="1">
          <mxGeometry x="-3234.5" y="65" width="135" height="35" as="geometry"/>
        </mxCell>
        <mxCell id="MO7SUTFCpSmHmxjMydiH-182" value="end" style="rounded=1;whiteSpace=wrap;html=1;" parent="1" vertex="1">
          <mxGeometry x="-3192" y="17.5" width="50" height="25" as="geometry"/>
        </mxCell>
        <mxCell id="MO7SUTFCpSmHmxjMydiH-183" value="PT2" style="shape=cube;whiteSpace=wrap;html=1;boundedLbl=1;backgroundOutline=1;darkOpacity=0.05;darkOpacity2=0.1;" parent="1" vertex="1">
          <mxGeometry x="-2554" y="-170" width="370" height="40" as="geometry"/>
        </mxCell>
        <mxCell id="MO7SUTFCpSmHmxjMydiH-184" value="ERP-40000" style="shape=cube;whiteSpace=wrap;html=1;boundedLbl=1;backgroundOutline=1;darkOpacity=0.05;darkOpacity2=0.1;" parent="1" vertex="1">
          <mxGeometry x="-3280" y="-170" width="370" height="40" as="geometry"/>
        </mxCell>
        <mxCell id="WbZyfgGSFHivBz08xxK0-2" style="edgeStyle=orthogonalEdgeStyle;rounded=0;orthogonalLoop=1;jettySize=auto;html=1;exitX=0;exitY=0.5;exitDx=0;exitDy=0;" edge="1" parent="1" source="WbZyfgGSFHivBz08xxK0-5" target="WbZyfgGSFHivBz08xxK0-4">
          <mxGeometry relative="1" as="geometry">
            <mxPoint x="217.5" y="2.5" as="targetPoint"/>
            <mxPoint x="417.5" y="2.5" as="sourcePoint"/>
          </mxGeometry>
        </mxCell>
        <mxCell id="WbZyfgGSFHivBz08xxK0-3" style="edgeStyle=orthogonalEdgeStyle;rounded=0;orthogonalLoop=1;jettySize=auto;html=1;entryX=1;entryY=0.5;entryDx=0;entryDy=0;entryPerimeter=0;" edge="1" parent="1" source="WbZyfgGSFHivBz08xxK0-4" target="WbZyfgGSFHivBz08xxK0-18">
          <mxGeometry relative="1" as="geometry">
            <mxPoint x="-315" y="2.5" as="targetPoint"/>
          </mxGeometry>
        </mxCell>
        <mxCell id="WbZyfgGSFHivBz08xxK0-4" value="&lt;font&gt;&lt;span style=&quot;font-size: 17px&quot;&gt;（通知队列）&lt;/span&gt;&lt;br&gt;&lt;div style=&quot;text-align: left&quot;&gt;&lt;span style=&quot;font-size: 17px&quot;&gt;TAG：&lt;/span&gt;&lt;i style=&quot;font-size: 17px&quot;&gt;&lt;font color=&quot;#ff3333&quot;&gt;43000&lt;/font&gt;&lt;/i&gt;&lt;span style=&quot;font-size: 17px&quot;&gt;&lt;br&gt;&lt;/span&gt;&lt;/div&gt;&lt;div style=&quot;text-align: left&quot;&gt;&lt;br&gt;&lt;/div&gt;&lt;br&gt;&lt;/font&gt;" style="strokeWidth=2;html=1;shape=mxgraph.flowchart.direct_data;whiteSpace=wrap;align=center;fillColor=#d5e8d4;strokeColor=#82b366;" vertex="1" parent="1">
          <mxGeometry x="-127.5" y="-65.5" width="260" height="100" as="geometry"/>
        </mxCell>
        <mxCell id="WbZyfgGSFHivBz08xxK0-5" value="新建生产者履历" style="rounded=0;whiteSpace=wrap;html=1;" vertex="1" parent="1">
          <mxGeometry x="409.5" y="-15.5" width="135" height="35" as="geometry"/>
        </mxCell>
        <mxCell id="WbZyfgGSFHivBz08xxK0-6" style="edgeStyle=orthogonalEdgeStyle;rounded=0;orthogonalLoop=1;jettySize=auto;html=1;" edge="1" parent="1" source="WbZyfgGSFHivBz08xxK0-7" target="WbZyfgGSFHivBz08xxK0-9">
          <mxGeometry relative="1" as="geometry"/>
        </mxCell>
        <mxCell id="WbZyfgGSFHivBz08xxK0-7" value="平台2调拨逻辑&lt;br&gt;事务提交" style="rounded=0;whiteSpace=wrap;html=1;" vertex="1" parent="1">
          <mxGeometry x="-449.5" y="12.5" width="130" height="47" as="geometry"/>
        </mxCell>
        <mxCell id="WbZyfgGSFHivBz08xxK0-8" style="edgeStyle=orthogonalEdgeStyle;rounded=0;orthogonalLoop=1;jettySize=auto;html=1;entryX=0;entryY=0.5;entryDx=0;entryDy=0;entryPerimeter=0;" edge="1" parent="1" source="WbZyfgGSFHivBz08xxK0-9" target="WbZyfgGSFHivBz08xxK0-11">
          <mxGeometry relative="1" as="geometry"/>
        </mxCell>
        <mxCell id="WbZyfgGSFHivBz08xxK0-9" value="更新消费者履历" style="rounded=0;whiteSpace=wrap;html=1;" vertex="1" parent="1">
          <mxGeometry x="-454.5" y="102.5" width="140" height="30" as="geometry"/>
        </mxCell>
        <mxCell id="WbZyfgGSFHivBz08xxK0-10" style="edgeStyle=orthogonalEdgeStyle;rounded=0;orthogonalLoop=1;jettySize=auto;html=1;strokeWidth=1;entryX=0;entryY=0.5;entryDx=0;entryDy=0;" edge="1" parent="1" source="WbZyfgGSFHivBz08xxK0-11" target="WbZyfgGSFHivBz08xxK0-15">
          <mxGeometry relative="1" as="geometry">
            <mxPoint x="417.5" y="117.5" as="targetPoint"/>
          </mxGeometry>
        </mxCell>
        <mxCell id="WbZyfgGSFHivBz08xxK0-11" value="&lt;font&gt;&lt;span style=&quot;font-size: 17px&quot;&gt;（回调队列）&lt;br&gt;&lt;/span&gt;&lt;span style=&quot;font-size: 17px ; text-align: left&quot;&gt;TAG：&lt;/span&gt;&lt;i style=&quot;font-size: 17px ; text-align: left&quot;&gt;&lt;font color=&quot;#ff3333&quot;&gt;43000&lt;/font&gt;&lt;/i&gt;&lt;span style=&quot;font-size: 17px&quot;&gt;&lt;br&gt;&lt;/span&gt;&lt;/font&gt;" style="strokeWidth=2;html=1;shape=mxgraph.flowchart.direct_data;whiteSpace=wrap;align=center;fillColor=#dae8fc;strokeColor=#6c8ebf;" vertex="1" parent="1">
          <mxGeometry x="-82.5" y="92.5" width="170" height="50" as="geometry"/>
        </mxCell>
        <mxCell id="WbZyfgGSFHivBz08xxK0-12" style="edgeStyle=orthogonalEdgeStyle;rounded=0;orthogonalLoop=1;jettySize=auto;html=1;strokeWidth=1;" edge="1" parent="1" source="WbZyfgGSFHivBz08xxK0-13" target="WbZyfgGSFHivBz08xxK0-7">
          <mxGeometry relative="1" as="geometry"/>
        </mxCell>
        <mxCell id="WbZyfgGSFHivBz08xxK0-13" value="新建消费者履历" style="rounded=0;whiteSpace=wrap;html=1;" vertex="1" parent="1">
          <mxGeometry x="-452" y="-57.5" width="135" height="35" as="geometry"/>
        </mxCell>
        <mxCell id="WbZyfgGSFHivBz08xxK0-14" style="edgeStyle=orthogonalEdgeStyle;rounded=0;orthogonalLoop=1;jettySize=auto;html=1;strokeWidth=1;entryX=0.5;entryY=1;entryDx=0;entryDy=0;" edge="1" parent="1" source="WbZyfgGSFHivBz08xxK0-15" target="WbZyfgGSFHivBz08xxK0-16">
          <mxGeometry relative="1" as="geometry">
            <mxPoint x="482.5" y="79.5" as="targetPoint"/>
          </mxGeometry>
        </mxCell>
        <mxCell id="WbZyfgGSFHivBz08xxK0-15" value="新建生产者履历" style="rounded=0;whiteSpace=wrap;html=1;" vertex="1" parent="1">
          <mxGeometry x="414.5" y="99.5" width="135" height="35" as="geometry"/>
        </mxCell>
        <mxCell id="WbZyfgGSFHivBz08xxK0-16" value="end" style="rounded=1;whiteSpace=wrap;html=1;" vertex="1" parent="1">
          <mxGeometry x="457" y="52.5" width="50" height="25" as="geometry"/>
        </mxCell>
        <mxCell id="WbZyfgGSFHivBz08xxK0-17" style="edgeStyle=orthogonalEdgeStyle;rounded=0;orthogonalLoop=1;jettySize=auto;html=1;entryX=0;entryY=0.5;entryDx=0;entryDy=0;strokeWidth=1;" edge="1" parent="1" source="WbZyfgGSFHivBz08xxK0-18" target="WbZyfgGSFHivBz08xxK0-13">
          <mxGeometry relative="1" as="geometry">
            <Array as="points">
              <mxPoint x="-471.5" y="-107.5"/>
              <mxPoint x="-471.5" y="-39.5"/>
            </Array>
          </mxGeometry>
        </mxCell>
        <mxCell id="WbZyfgGSFHivBz08xxK0-18" value="" style="verticalLabelPosition=bottom;verticalAlign=top;html=1;strokeWidth=2;shape=mxgraph.flowchart.parallel_mode;pointerEvents=1" vertex="1" parent="1">
          <mxGeometry x="-430" y="-127.5" width="95" height="40" as="geometry"/>
        </mxCell>
        <mxCell id="WbZyfgGSFHivBz08xxK0-19" value="分布式设备锁" style="text;html=1;resizable=0;points=[];autosize=1;align=left;verticalAlign=top;spacingTop=-4;" vertex="1" parent="1">
          <mxGeometry x="-425" y="-87.5" width="90" height="20" as="geometry"/>
        </mxCell>
        <mxCell id="WbZyfgGSFHivBz08xxK0-21" style="edgeStyle=orthogonalEdgeStyle;rounded=0;orthogonalLoop=1;jettySize=auto;html=1;entryX=0.5;entryY=0;entryDx=0;entryDy=0;strokeWidth=1;" edge="1" parent="1" source="WbZyfgGSFHivBz08xxK0-22" target="WbZyfgGSFHivBz08xxK0-28">
          <mxGeometry relative="1" as="geometry"/>
        </mxCell>
        <mxCell id="WbZyfgGSFHivBz08xxK0-22" value="更新激活时间" style="rounded=1;whiteSpace=wrap;html=1;" vertex="1" parent="1">
          <mxGeometry x="-2848" y="968" width="120" height="60" as="geometry"/>
        </mxCell>
        <mxCell id="WbZyfgGSFHivBz08xxK0-23" style="edgeStyle=orthogonalEdgeStyle;rounded=0;orthogonalLoop=1;jettySize=auto;html=1;entryX=0;entryY=0.5;entryDx=0;entryDy=0;strokeWidth=1;" edge="1" parent="1" source="WbZyfgGSFHivBz08xxK0-24" target="WbZyfgGSFHivBz08xxK0-26">
          <mxGeometry relative="1" as="geometry"/>
        </mxCell>
        <mxCell id="WbZyfgGSFHivBz08xxK0-24" value="&lt;font&gt;&lt;span style=&quot;font-size: 17px&quot;&gt;（通知队列）&lt;/span&gt;&lt;br&gt;&lt;div style=&quot;text-align: left&quot;&gt;&lt;span style=&quot;font-size: 17px&quot;&gt;TAG：&lt;i&gt;&lt;font color=&quot;#ff3333&quot;&gt;14003&lt;/font&gt;&lt;/i&gt;&lt;/span&gt;&lt;/div&gt;&lt;div style=&quot;text-align: left&quot;&gt;&lt;br&gt;&lt;/div&gt;&lt;/font&gt;" style="strokeWidth=2;html=1;shape=mxgraph.flowchart.direct_data;whiteSpace=wrap;align=center;fillColor=#d5e8d4;strokeColor=#82b366;" vertex="1" parent="1">
          <mxGeometry x="-2511" y="1015.5" width="260" height="100" as="geometry"/>
        </mxCell>
        <mxCell id="WbZyfgGSFHivBz08xxK0-25" style="edgeStyle=orthogonalEdgeStyle;rounded=0;orthogonalLoop=1;jettySize=auto;html=1;entryX=0.5;entryY=0;entryDx=0;entryDy=0;" edge="1" parent="1" source="WbZyfgGSFHivBz08xxK0-26" target="WbZyfgGSFHivBz08xxK0-32">
          <mxGeometry relative="1" as="geometry">
            <mxPoint x="-1974" y="1118" as="targetPoint"/>
          </mxGeometry>
        </mxCell>
        <mxCell id="WbZyfgGSFHivBz08xxK0-26" value="新建消费者履历" style="rounded=0;whiteSpace=wrap;html=1;" vertex="1" parent="1">
          <mxGeometry x="-2041.5" y="1048" width="135" height="35" as="geometry"/>
        </mxCell>
        <mxCell id="WbZyfgGSFHivBz08xxK0-27" style="edgeStyle=orthogonalEdgeStyle;rounded=0;orthogonalLoop=1;jettySize=auto;html=1;strokeWidth=1;" edge="1" parent="1" source="WbZyfgGSFHivBz08xxK0-28" target="WbZyfgGSFHivBz08xxK0-24">
          <mxGeometry relative="1" as="geometry"/>
        </mxCell>
        <mxCell id="WbZyfgGSFHivBz08xxK0-28" value="新建生产者履历" style="rounded=0;whiteSpace=wrap;html=1;" vertex="1" parent="1">
          <mxGeometry x="-2855.5" y="1048" width="135" height="35" as="geometry"/>
        </mxCell>
        <mxCell id="WbZyfgGSFHivBz08xxK0-29" style="edgeStyle=orthogonalEdgeStyle;rounded=0;orthogonalLoop=1;jettySize=auto;html=1;" edge="1" parent="1" source="WbZyfgGSFHivBz08xxK0-30" target="WbZyfgGSFHivBz08xxK0-36">
          <mxGeometry relative="1" as="geometry"/>
        </mxCell>
        <mxCell id="WbZyfgGSFHivBz08xxK0-30" value="&lt;font&gt;&lt;span style=&quot;font-size: 17px&quot;&gt;（回调队列）&lt;br&gt;&lt;/span&gt;&lt;span style=&quot;font-size: 17px ; text-align: left&quot;&gt;TAG：&lt;/span&gt;&lt;i style=&quot;font-size: 17px ; text-align: left&quot;&gt;&lt;font color=&quot;#ff3333&quot;&gt;14003&lt;/font&gt;&lt;/i&gt;&lt;span style=&quot;font-size: 17px&quot;&gt;&lt;br&gt;&lt;/span&gt;&lt;/font&gt;" style="strokeWidth=2;html=1;shape=mxgraph.flowchart.direct_data;whiteSpace=wrap;align=center;fillColor=#dae8fc;strokeColor=#6c8ebf;" vertex="1" parent="1">
          <mxGeometry x="-2468" y="1155.5" width="170" height="50" as="geometry"/>
        </mxCell>
        <mxCell id="WbZyfgGSFHivBz08xxK0-31" value="" style="edgeStyle=orthogonalEdgeStyle;rounded=0;orthogonalLoop=1;jettySize=auto;html=1;" edge="1" parent="1" source="WbZyfgGSFHivBz08xxK0-32" target="WbZyfgGSFHivBz08xxK0-34">
          <mxGeometry relative="1" as="geometry"/>
        </mxCell>
        <mxCell id="WbZyfgGSFHivBz08xxK0-32" value="批量更新逻辑" style="rounded=0;whiteSpace=wrap;html=1;" vertex="1" parent="1">
          <mxGeometry x="-2041.5" y="1108" width="135" height="35" as="geometry"/>
        </mxCell>
        <mxCell id="WbZyfgGSFHivBz08xxK0-33" style="edgeStyle=orthogonalEdgeStyle;rounded=0;orthogonalLoop=1;jettySize=auto;html=1;entryX=1;entryY=0.5;entryDx=0;entryDy=0;entryPerimeter=0;" edge="1" parent="1" source="WbZyfgGSFHivBz08xxK0-34" target="WbZyfgGSFHivBz08xxK0-30">
          <mxGeometry relative="1" as="geometry"/>
        </mxCell>
        <mxCell id="WbZyfgGSFHivBz08xxK0-34" value="更新消费者履历" style="rounded=0;whiteSpace=wrap;html=1;" vertex="1" parent="1">
          <mxGeometry x="-2041.5" y="1163" width="135" height="35" as="geometry"/>
        </mxCell>
        <mxCell id="WbZyfgGSFHivBz08xxK0-35" style="edgeStyle=orthogonalEdgeStyle;rounded=0;orthogonalLoop=1;jettySize=auto;html=1;entryX=0.5;entryY=1;entryDx=0;entryDy=0;" edge="1" parent="1" source="WbZyfgGSFHivBz08xxK0-36" target="WbZyfgGSFHivBz08xxK0-37">
          <mxGeometry relative="1" as="geometry"/>
        </mxCell>
        <mxCell id="WbZyfgGSFHivBz08xxK0-36" value="更新生产者履历" style="rounded=0;whiteSpace=wrap;html=1;" vertex="1" parent="1">
          <mxGeometry x="-2855.5" y="1163" width="135" height="35" as="geometry"/>
        </mxCell>
        <mxCell id="WbZyfgGSFHivBz08xxK0-37" value="end" style="rounded=1;whiteSpace=wrap;html=1;" vertex="1" parent="1">
          <mxGeometry x="-2813" y="1115.5" width="50" height="25" as="geometry"/>
        </mxCell>
        <mxCell id="WbZyfgGSFHivBz08xxK0-38" value="ERP-40000" style="shape=cube;whiteSpace=wrap;html=1;boundedLbl=1;backgroundOutline=1;darkOpacity=0.05;darkOpacity2=0.1;" vertex="1" parent="1">
          <mxGeometry x="-2175" y="928" width="370" height="40" as="geometry"/>
        </mxCell>
        <mxCell id="WbZyfgGSFHivBz08xxK0-39" value="PT2-10000" style="shape=cube;whiteSpace=wrap;html=1;boundedLbl=1;backgroundOutline=1;darkOpacity=0.05;darkOpacity2=0.1;" vertex="1" parent="1">
          <mxGeometry x="-2901" y="928" width="370" height="40" as="geometry"/>
        </mxCell>
        <mxCell id="WbZyfgGSFHivBz08xxK0-59" style="edgeStyle=orthogonalEdgeStyle;rounded=0;orthogonalLoop=1;jettySize=auto;html=1;entryX=0.5;entryY=0;entryDx=0;entryDy=0;strokeWidth=1;" edge="1" parent="1" source="WbZyfgGSFHivBz08xxK0-60" target="WbZyfgGSFHivBz08xxK0-66">
          <mxGeometry relative="1" as="geometry"/>
        </mxCell>
        <mxCell id="WbZyfgGSFHivBz08xxK0-60" value="重置首次激活时间&lt;br&gt;重置激活状态" style="rounded=1;whiteSpace=wrap;html=1;" vertex="1" parent="1">
          <mxGeometry x="-2864" y="1350" width="120" height="60" as="geometry"/>
        </mxCell>
        <mxCell id="WbZyfgGSFHivBz08xxK0-61" style="edgeStyle=orthogonalEdgeStyle;rounded=0;orthogonalLoop=1;jettySize=auto;html=1;entryX=0;entryY=0.5;entryDx=0;entryDy=0;strokeWidth=1;" edge="1" parent="1" source="WbZyfgGSFHivBz08xxK0-62" target="WbZyfgGSFHivBz08xxK0-64">
          <mxGeometry relative="1" as="geometry"/>
        </mxCell>
        <mxCell id="WbZyfgGSFHivBz08xxK0-62" value="&lt;font&gt;&lt;span style=&quot;font-size: 17px&quot;&gt;（通知队列）&lt;/span&gt;&lt;br&gt;&lt;div style=&quot;text-align: left&quot;&gt;&lt;span style=&quot;font-size: 17px&quot;&gt;TAG：&lt;i&gt;&lt;font color=&quot;#ff3333&quot;&gt;44003&lt;/font&gt;&lt;/i&gt;&lt;/span&gt;&lt;/div&gt;&lt;div style=&quot;text-align: left&quot;&gt;&lt;br&gt;&lt;/div&gt;&lt;/font&gt;" style="strokeWidth=2;html=1;shape=mxgraph.flowchart.direct_data;whiteSpace=wrap;align=center;fillColor=#d5e8d4;strokeColor=#82b366;" vertex="1" parent="1">
          <mxGeometry x="-2527" y="1397.5" width="260" height="100" as="geometry"/>
        </mxCell>
        <mxCell id="WbZyfgGSFHivBz08xxK0-63" style="edgeStyle=orthogonalEdgeStyle;rounded=0;orthogonalLoop=1;jettySize=auto;html=1;entryX=0.5;entryY=0;entryDx=0;entryDy=0;" edge="1" parent="1" source="WbZyfgGSFHivBz08xxK0-64" target="WbZyfgGSFHivBz08xxK0-70">
          <mxGeometry relative="1" as="geometry">
            <mxPoint x="-1990" y="1500" as="targetPoint"/>
          </mxGeometry>
        </mxCell>
        <mxCell id="WbZyfgGSFHivBz08xxK0-64" value="新建消费者履历" style="rounded=0;whiteSpace=wrap;html=1;" vertex="1" parent="1">
          <mxGeometry x="-2057.5" y="1430" width="135" height="35" as="geometry"/>
        </mxCell>
        <mxCell id="WbZyfgGSFHivBz08xxK0-65" style="edgeStyle=orthogonalEdgeStyle;rounded=0;orthogonalLoop=1;jettySize=auto;html=1;strokeWidth=1;" edge="1" parent="1" source="WbZyfgGSFHivBz08xxK0-66" target="WbZyfgGSFHivBz08xxK0-62">
          <mxGeometry relative="1" as="geometry"/>
        </mxCell>
        <mxCell id="WbZyfgGSFHivBz08xxK0-66" value="新建生产者履历" style="rounded=0;whiteSpace=wrap;html=1;" vertex="1" parent="1">
          <mxGeometry x="-2871.5" y="1430" width="135" height="35" as="geometry"/>
        </mxCell>
        <mxCell id="WbZyfgGSFHivBz08xxK0-67" style="edgeStyle=orthogonalEdgeStyle;rounded=0;orthogonalLoop=1;jettySize=auto;html=1;" edge="1" parent="1" source="WbZyfgGSFHivBz08xxK0-68" target="WbZyfgGSFHivBz08xxK0-74">
          <mxGeometry relative="1" as="geometry"/>
        </mxCell>
        <mxCell id="WbZyfgGSFHivBz08xxK0-68" value="&lt;font&gt;&lt;span style=&quot;font-size: 17px&quot;&gt;（回调队列）&lt;br&gt;&lt;/span&gt;&lt;span style=&quot;font-size: 17px ; text-align: left&quot;&gt;TAG：&lt;/span&gt;&lt;i style=&quot;font-size: 17px ; text-align: left&quot;&gt;&lt;font color=&quot;#ff3333&quot;&gt;44003&lt;/font&gt;&lt;/i&gt;&lt;span style=&quot;font-size: 17px&quot;&gt;&lt;br&gt;&lt;/span&gt;&lt;/font&gt;" style="strokeWidth=2;html=1;shape=mxgraph.flowchart.direct_data;whiteSpace=wrap;align=center;fillColor=#dae8fc;strokeColor=#6c8ebf;" vertex="1" parent="1">
          <mxGeometry x="-2484" y="1537.5" width="170" height="50" as="geometry"/>
        </mxCell>
        <mxCell id="WbZyfgGSFHivBz08xxK0-69" value="" style="edgeStyle=orthogonalEdgeStyle;rounded=0;orthogonalLoop=1;jettySize=auto;html=1;" edge="1" parent="1" source="WbZyfgGSFHivBz08xxK0-70" target="WbZyfgGSFHivBz08xxK0-72">
          <mxGeometry relative="1" as="geometry"/>
        </mxCell>
        <mxCell id="WbZyfgGSFHivBz08xxK0-70" value="批量更新逻辑" style="rounded=0;whiteSpace=wrap;html=1;" vertex="1" parent="1">
          <mxGeometry x="-2057.5" y="1490" width="135" height="35" as="geometry"/>
        </mxCell>
        <mxCell id="WbZyfgGSFHivBz08xxK0-71" style="edgeStyle=orthogonalEdgeStyle;rounded=0;orthogonalLoop=1;jettySize=auto;html=1;entryX=1;entryY=0.5;entryDx=0;entryDy=0;entryPerimeter=0;" edge="1" parent="1" source="WbZyfgGSFHivBz08xxK0-72" target="WbZyfgGSFHivBz08xxK0-68">
          <mxGeometry relative="1" as="geometry"/>
        </mxCell>
        <mxCell id="WbZyfgGSFHivBz08xxK0-72" value="更新消费者履历" style="rounded=0;whiteSpace=wrap;html=1;" vertex="1" parent="1">
          <mxGeometry x="-2057.5" y="1545" width="135" height="35" as="geometry"/>
        </mxCell>
        <mxCell id="WbZyfgGSFHivBz08xxK0-73" style="edgeStyle=orthogonalEdgeStyle;rounded=0;orthogonalLoop=1;jettySize=auto;html=1;entryX=0.5;entryY=1;entryDx=0;entryDy=0;" edge="1" parent="1" source="WbZyfgGSFHivBz08xxK0-74" target="WbZyfgGSFHivBz08xxK0-75">
          <mxGeometry relative="1" as="geometry"/>
        </mxCell>
        <mxCell id="WbZyfgGSFHivBz08xxK0-74" value="更新生产者履历" style="rounded=0;whiteSpace=wrap;html=1;" vertex="1" parent="1">
          <mxGeometry x="-2871.5" y="1545" width="135" height="35" as="geometry"/>
        </mxCell>
        <mxCell id="WbZyfgGSFHivBz08xxK0-75" value="end" style="rounded=1;whiteSpace=wrap;html=1;" vertex="1" parent="1">
          <mxGeometry x="-2829" y="1497.5" width="50" height="25" as="geometry"/>
        </mxCell>
        <mxCell id="WbZyfgGSFHivBz08xxK0-76" value="PT2-10000" style="shape=cube;whiteSpace=wrap;html=1;boundedLbl=1;backgroundOutline=1;darkOpacity=0.05;darkOpacity2=0.1;" vertex="1" parent="1">
          <mxGeometry x="-2191" y="1310" width="370" height="40" as="geometry"/>
        </mxCell>
        <mxCell id="WbZyfgGSFHivBz08xxK0-77" value="&lt;span style=&quot;white-space: normal&quot;&gt;ERP-40000&lt;/span&gt;" style="shape=cube;whiteSpace=wrap;html=1;boundedLbl=1;backgroundOutline=1;darkOpacity=0.05;darkOpacity2=0.1;" vertex="1" parent="1">
          <mxGeometry x="-2917" y="1310" width="370" height="40" as="geometry"/>
        </mxCell>
      </root>
    </mxGraphModel>
  </diagram>
</mxfile>
